%TF.GenerationSoftware,KiCad,Pcbnew,9.0.6*%
%TF.CreationDate,2025-12-31T15:00:17+05:30*%
%TF.ProjectId,venkat-pcb,76656e6b-6174-42d7-9063-622e6b696361,rev?*%
%TF.SameCoordinates,Original*%
%TF.FileFunction,Legend,Top*%
%TF.FilePolarity,Positive*%
%FSLAX46Y46*%
G04 Gerber Fmt 4.6, Leading zero omitted, Abs format (unit mm)*
G04 Created by KiCad (PCBNEW 9.0.6) date 2025-12-31 15:00:17*
%MOMM*%
%LPD*%
G01*
G04 APERTURE LIST*
%ADD10C,0.100000*%
%ADD11C,0.120000*%
G04 APERTURE END LIST*
D10*
X178780074Y-106372419D02*
X178303884Y-106372419D01*
X178303884Y-106372419D02*
X178303884Y-105372419D01*
X179113408Y-105848609D02*
X179446741Y-105848609D01*
X179589598Y-106372419D02*
X179113408Y-106372419D01*
X179113408Y-106372419D02*
X179113408Y-105372419D01*
X179113408Y-105372419D02*
X179589598Y-105372419D01*
X180018170Y-106372419D02*
X180018170Y-105372419D01*
X180018170Y-105372419D02*
X180256265Y-105372419D01*
X180256265Y-105372419D02*
X180399122Y-105420038D01*
X180399122Y-105420038D02*
X180494360Y-105515276D01*
X180494360Y-105515276D02*
X180541979Y-105610514D01*
X180541979Y-105610514D02*
X180589598Y-105800990D01*
X180589598Y-105800990D02*
X180589598Y-105943847D01*
X180589598Y-105943847D02*
X180541979Y-106134323D01*
X180541979Y-106134323D02*
X180494360Y-106229561D01*
X180494360Y-106229561D02*
X180399122Y-106324800D01*
X180399122Y-106324800D02*
X180256265Y-106372419D01*
X180256265Y-106372419D02*
X180018170Y-106372419D01*
X182351503Y-106277180D02*
X182303884Y-106324800D01*
X182303884Y-106324800D02*
X182161027Y-106372419D01*
X182161027Y-106372419D02*
X182065789Y-106372419D01*
X182065789Y-106372419D02*
X181922932Y-106324800D01*
X181922932Y-106324800D02*
X181827694Y-106229561D01*
X181827694Y-106229561D02*
X181780075Y-106134323D01*
X181780075Y-106134323D02*
X181732456Y-105943847D01*
X181732456Y-105943847D02*
X181732456Y-105800990D01*
X181732456Y-105800990D02*
X181780075Y-105610514D01*
X181780075Y-105610514D02*
X181827694Y-105515276D01*
X181827694Y-105515276D02*
X181922932Y-105420038D01*
X181922932Y-105420038D02*
X182065789Y-105372419D01*
X182065789Y-105372419D02*
X182161027Y-105372419D01*
X182161027Y-105372419D02*
X182303884Y-105420038D01*
X182303884Y-105420038D02*
X182351503Y-105467657D01*
X183256265Y-106372419D02*
X182780075Y-106372419D01*
X182780075Y-106372419D02*
X182780075Y-105372419D01*
X183780075Y-105372419D02*
X183970551Y-105372419D01*
X183970551Y-105372419D02*
X184065789Y-105420038D01*
X184065789Y-105420038D02*
X184161027Y-105515276D01*
X184161027Y-105515276D02*
X184208646Y-105705752D01*
X184208646Y-105705752D02*
X184208646Y-106039085D01*
X184208646Y-106039085D02*
X184161027Y-106229561D01*
X184161027Y-106229561D02*
X184065789Y-106324800D01*
X184065789Y-106324800D02*
X183970551Y-106372419D01*
X183970551Y-106372419D02*
X183780075Y-106372419D01*
X183780075Y-106372419D02*
X183684837Y-106324800D01*
X183684837Y-106324800D02*
X183589599Y-106229561D01*
X183589599Y-106229561D02*
X183541980Y-106039085D01*
X183541980Y-106039085D02*
X183541980Y-105705752D01*
X183541980Y-105705752D02*
X183589599Y-105515276D01*
X183589599Y-105515276D02*
X183684837Y-105420038D01*
X183684837Y-105420038D02*
X183780075Y-105372419D01*
X185208646Y-106277180D02*
X185161027Y-106324800D01*
X185161027Y-106324800D02*
X185018170Y-106372419D01*
X185018170Y-106372419D02*
X184922932Y-106372419D01*
X184922932Y-106372419D02*
X184780075Y-106324800D01*
X184780075Y-106324800D02*
X184684837Y-106229561D01*
X184684837Y-106229561D02*
X184637218Y-106134323D01*
X184637218Y-106134323D02*
X184589599Y-105943847D01*
X184589599Y-105943847D02*
X184589599Y-105800990D01*
X184589599Y-105800990D02*
X184637218Y-105610514D01*
X184637218Y-105610514D02*
X184684837Y-105515276D01*
X184684837Y-105515276D02*
X184780075Y-105420038D01*
X184780075Y-105420038D02*
X184922932Y-105372419D01*
X184922932Y-105372419D02*
X185018170Y-105372419D01*
X185018170Y-105372419D02*
X185161027Y-105420038D01*
X185161027Y-105420038D02*
X185208646Y-105467657D01*
X185637218Y-106372419D02*
X185637218Y-105372419D01*
X186208646Y-106372419D02*
X185780075Y-105800990D01*
X186208646Y-105372419D02*
X185637218Y-105943847D01*
X187399123Y-105991466D02*
X188161028Y-105991466D01*
X189256266Y-105372419D02*
X189589599Y-106372419D01*
X189589599Y-106372419D02*
X189922932Y-105372419D01*
X190780075Y-106372419D02*
X190208647Y-106372419D01*
X190494361Y-106372419D02*
X190494361Y-105372419D01*
X190494361Y-105372419D02*
X190399123Y-105515276D01*
X190399123Y-105515276D02*
X190303885Y-105610514D01*
X190303885Y-105610514D02*
X190208647Y-105658133D01*
X89780074Y-99372419D02*
X89303884Y-99372419D01*
X89303884Y-99372419D02*
X89256265Y-99848609D01*
X89256265Y-99848609D02*
X89303884Y-99800990D01*
X89303884Y-99800990D02*
X89399122Y-99753371D01*
X89399122Y-99753371D02*
X89637217Y-99753371D01*
X89637217Y-99753371D02*
X89732455Y-99800990D01*
X89732455Y-99800990D02*
X89780074Y-99848609D01*
X89780074Y-99848609D02*
X89827693Y-99943847D01*
X89827693Y-99943847D02*
X89827693Y-100181942D01*
X89827693Y-100181942D02*
X89780074Y-100277180D01*
X89780074Y-100277180D02*
X89732455Y-100324800D01*
X89732455Y-100324800D02*
X89637217Y-100372419D01*
X89637217Y-100372419D02*
X89399122Y-100372419D01*
X89399122Y-100372419D02*
X89303884Y-100324800D01*
X89303884Y-100324800D02*
X89256265Y-100277180D01*
X89827693Y-94420038D02*
X89732455Y-94372419D01*
X89732455Y-94372419D02*
X89589598Y-94372419D01*
X89589598Y-94372419D02*
X89446741Y-94420038D01*
X89446741Y-94420038D02*
X89351503Y-94515276D01*
X89351503Y-94515276D02*
X89303884Y-94610514D01*
X89303884Y-94610514D02*
X89256265Y-94800990D01*
X89256265Y-94800990D02*
X89256265Y-94943847D01*
X89256265Y-94943847D02*
X89303884Y-95134323D01*
X89303884Y-95134323D02*
X89351503Y-95229561D01*
X89351503Y-95229561D02*
X89446741Y-95324800D01*
X89446741Y-95324800D02*
X89589598Y-95372419D01*
X89589598Y-95372419D02*
X89684836Y-95372419D01*
X89684836Y-95372419D02*
X89827693Y-95324800D01*
X89827693Y-95324800D02*
X89875312Y-95277180D01*
X89875312Y-95277180D02*
X89875312Y-94943847D01*
X89875312Y-94943847D02*
X89684836Y-94943847D01*
X89256265Y-97824800D02*
X89399122Y-97872419D01*
X89399122Y-97872419D02*
X89637217Y-97872419D01*
X89637217Y-97872419D02*
X89732455Y-97824800D01*
X89732455Y-97824800D02*
X89780074Y-97777180D01*
X89780074Y-97777180D02*
X89827693Y-97681942D01*
X89827693Y-97681942D02*
X89827693Y-97586704D01*
X89827693Y-97586704D02*
X89780074Y-97491466D01*
X89780074Y-97491466D02*
X89732455Y-97443847D01*
X89732455Y-97443847D02*
X89637217Y-97396228D01*
X89637217Y-97396228D02*
X89446741Y-97348609D01*
X89446741Y-97348609D02*
X89351503Y-97300990D01*
X89351503Y-97300990D02*
X89303884Y-97253371D01*
X89303884Y-97253371D02*
X89256265Y-97158133D01*
X89256265Y-97158133D02*
X89256265Y-97062895D01*
X89256265Y-97062895D02*
X89303884Y-96967657D01*
X89303884Y-96967657D02*
X89351503Y-96920038D01*
X89351503Y-96920038D02*
X89446741Y-96872419D01*
X89446741Y-96872419D02*
X89684836Y-96872419D01*
X89684836Y-96872419D02*
X89827693Y-96920038D01*
D11*
%TO.C,D10*%
X182292895Y-94853554D02*
X181020101Y-96126346D01*
X182717159Y-93297919D02*
X179146269Y-96868809D01*
X183353554Y-93297920D02*
X182717159Y-93297919D01*
X184096017Y-101818556D02*
X179146269Y-96868809D01*
X184096017Y-101818556D02*
X187985103Y-97929469D01*
X186111271Y-98671932D02*
X184838477Y-99944724D01*
X187985103Y-97929469D02*
X183353554Y-93297920D01*
%TO.C,D8*%
X164292895Y-94853554D02*
X163020101Y-96126346D01*
X164717159Y-93297919D02*
X161146269Y-96868809D01*
X165353554Y-93297920D02*
X164717159Y-93297919D01*
X166096017Y-101818556D02*
X161146269Y-96868809D01*
X166096017Y-101818556D02*
X169985103Y-97929469D01*
X168111271Y-98671932D02*
X166838477Y-99944724D01*
X169985103Y-97929469D02*
X165353554Y-93297920D01*
%TO.C,D1*%
X101292895Y-95024415D02*
X100020101Y-96297207D01*
X101717159Y-93468780D02*
X98146269Y-97039670D01*
X102353554Y-93468781D02*
X101717159Y-93468780D01*
X103096017Y-101989417D02*
X98146269Y-97039670D01*
X103096017Y-101989417D02*
X106985103Y-98100330D01*
X105111271Y-98842793D02*
X103838477Y-100115585D01*
X106985103Y-98100330D02*
X102353554Y-93468781D01*
%TO.C,D6*%
X146292895Y-94853554D02*
X145020101Y-96126346D01*
X146717159Y-93297919D02*
X143146269Y-96868809D01*
X147353554Y-93297920D02*
X146717159Y-93297919D01*
X148096017Y-101818556D02*
X143146269Y-96868809D01*
X148096017Y-101818556D02*
X151985103Y-97929469D01*
X150111271Y-98671932D02*
X148838477Y-99944724D01*
X151985103Y-97929469D02*
X147353554Y-93297920D01*
%TO.C,D4*%
X128292895Y-94853554D02*
X127020101Y-96126346D01*
X128717159Y-93297919D02*
X125146269Y-96868809D01*
X129353554Y-93297920D02*
X128717159Y-93297919D01*
X130096017Y-101818556D02*
X125146269Y-96868809D01*
X130096017Y-101818556D02*
X133985103Y-97929469D01*
X132111271Y-98671932D02*
X130838477Y-99944724D01*
X133985103Y-97929469D02*
X129353554Y-93297920D01*
%TO.C,D7*%
X155292895Y-94853554D02*
X154020101Y-96126346D01*
X155717159Y-93297919D02*
X152146269Y-96868809D01*
X156353554Y-93297920D02*
X155717159Y-93297919D01*
X157096017Y-101818556D02*
X152146269Y-96868809D01*
X157096017Y-101818556D02*
X160985103Y-97929469D01*
X159111271Y-98671932D02*
X157838477Y-99944724D01*
X160985103Y-97929469D02*
X156353554Y-93297920D01*
%TO.C,J1*%
X91320000Y-93530000D02*
X92700000Y-93530000D01*
X91320000Y-94910000D02*
X91320000Y-93530000D01*
X91320000Y-96180000D02*
X91320000Y-101370000D01*
X91320000Y-96180000D02*
X94080000Y-96180000D01*
X91320000Y-101370000D02*
X94080000Y-101370000D01*
X94080000Y-96180000D02*
X94080000Y-101370000D01*
%TO.C,D2*%
X110292895Y-94853554D02*
X109020101Y-96126346D01*
X110717159Y-93297919D02*
X107146269Y-96868809D01*
X111353554Y-93297920D02*
X110717159Y-93297919D01*
X112096017Y-101818556D02*
X107146269Y-96868809D01*
X112096017Y-101818556D02*
X115985103Y-97929469D01*
X114111271Y-98671932D02*
X112838477Y-99944724D01*
X115985103Y-97929469D02*
X111353554Y-93297920D01*
%TO.C,D9*%
X173292895Y-94853554D02*
X172020101Y-96126346D01*
X173717159Y-93297919D02*
X170146269Y-96868809D01*
X174353554Y-93297920D02*
X173717159Y-93297919D01*
X175096017Y-101818556D02*
X170146269Y-96868809D01*
X175096017Y-101818556D02*
X178985103Y-97929469D01*
X177111271Y-98671932D02*
X175838477Y-99944724D01*
X178985103Y-97929469D02*
X174353554Y-93297920D01*
%TO.C,D5*%
X137292895Y-94853554D02*
X136020101Y-96126346D01*
X137717159Y-93297919D02*
X134146269Y-96868809D01*
X138353554Y-93297920D02*
X137717159Y-93297919D01*
X139096017Y-101818556D02*
X134146269Y-96868809D01*
X139096017Y-101818556D02*
X142985103Y-97929469D01*
X141111271Y-98671932D02*
X139838477Y-99944724D01*
X142985103Y-97929469D02*
X138353554Y-93297920D01*
%TO.C,D3*%
X119292895Y-94853554D02*
X118020101Y-96126346D01*
X119717159Y-93297919D02*
X116146269Y-96868809D01*
X120353554Y-93297920D02*
X119717159Y-93297919D01*
X121096017Y-101818556D02*
X116146269Y-96868809D01*
X121096017Y-101818556D02*
X124985103Y-97929469D01*
X123111271Y-98671932D02*
X121838477Y-99944724D01*
X124985103Y-97929469D02*
X120353554Y-93297920D01*
%TD*%
M02*
