%TF.GenerationSoftware,KiCad,Pcbnew,9.0.6*%
%TF.CreationDate,2025-12-31T15:00:17+05:30*%
%TF.ProjectId,venkat-pcb,76656e6b-6174-42d7-9063-622e6b696361,rev?*%
%TF.SameCoordinates,Original*%
%TF.FileFunction,Copper,L1,Top*%
%TF.FilePolarity,Positive*%
%FSLAX46Y46*%
G04 Gerber Fmt 4.6, Leading zero omitted, Abs format (unit mm)*
G04 Created by KiCad (PCBNEW 9.0.6) date 2025-12-31 15:00:17*
%MOMM*%
%LPD*%
G01*
G04 APERTURE LIST*
G04 Aperture macros list*
%AMRoundRect*
0 Rectangle with rounded corners*
0 $1 Rounding radius*
0 $2 $3 $4 $5 $6 $7 $8 $9 X,Y pos of 4 corners*
0 Add a 4 corners polygon primitive as box body*
4,1,4,$2,$3,$4,$5,$6,$7,$8,$9,$2,$3,0*
0 Add four circle primitives for the rounded corners*
1,1,$1+$1,$2,$3*
1,1,$1+$1,$4,$5*
1,1,$1+$1,$6,$7*
1,1,$1+$1,$8,$9*
0 Add four rect primitives between the rounded corners*
20,1,$1+$1,$2,$3,$4,$5,0*
20,1,$1+$1,$4,$5,$6,$7,0*
20,1,$1+$1,$6,$7,$8,$9,0*
20,1,$1+$1,$8,$9,$2,$3,0*%
G04 Aperture macros list end*
%TA.AperFunction,SMDPad,CuDef*%
%ADD10RoundRect,0.090000X0.721249X-0.212132X-0.212132X0.721249X-0.721249X0.212132X0.212132X-0.721249X0*%
%TD*%
%TA.AperFunction,ComponentPad*%
%ADD11R,1.700000X1.700000*%
%TD*%
%TA.AperFunction,ComponentPad*%
%ADD12C,1.700000*%
%TD*%
%TA.AperFunction,Conductor*%
%ADD13C,0.200000*%
%TD*%
G04 APERTURE END LIST*
D10*
%TO.P,D10,1,VDD*%
%TO.N,+5V*%
X184131372Y-100298278D03*
%TO.P,D10,2,DOUT*%
%TO.N,unconnected-(D10-DOUT-Pad2)*%
X186464824Y-97964824D03*
%TO.P,D10,3,VSS*%
%TO.N,GND*%
X183000000Y-94500000D03*
%TO.P,D10,4,DIN*%
%TO.N,Net-(D10-DIN)*%
X180666548Y-96833454D03*
%TD*%
%TO.P,D8,1,VDD*%
%TO.N,+5V*%
X166131372Y-100298278D03*
%TO.P,D8,2,DOUT*%
%TO.N,Net-(D8-DOUT)*%
X168464824Y-97964824D03*
%TO.P,D8,3,VSS*%
%TO.N,GND*%
X165000000Y-94500000D03*
%TO.P,D8,4,DIN*%
%TO.N,Net-(D7-DOUT)*%
X162666548Y-96833454D03*
%TD*%
%TO.P,D1,1,VDD*%
%TO.N,+5V*%
X103131372Y-100469139D03*
%TO.P,D1,2,DOUT*%
%TO.N,Net-(D1-DOUT)*%
X105464824Y-98135685D03*
%TO.P,D1,3,VSS*%
%TO.N,GND*%
X102000000Y-94670861D03*
%TO.P,D1,4,DIN*%
%TO.N,Net-(D1-DIN)*%
X99666548Y-97004315D03*
%TD*%
%TO.P,D6,1,VDD*%
%TO.N,+5V*%
X148131372Y-100298278D03*
%TO.P,D6,2,DOUT*%
%TO.N,Net-(D6-DOUT)*%
X150464824Y-97964824D03*
%TO.P,D6,3,VSS*%
%TO.N,GND*%
X147000000Y-94500000D03*
%TO.P,D6,4,DIN*%
%TO.N,Net-(D5-DOUT)*%
X144666548Y-96833454D03*
%TD*%
%TO.P,D4,1,VDD*%
%TO.N,+5V*%
X130131372Y-100298278D03*
%TO.P,D4,2,DOUT*%
%TO.N,Net-(D4-DOUT)*%
X132464824Y-97964824D03*
%TO.P,D4,3,VSS*%
%TO.N,GND*%
X129000000Y-94500000D03*
%TO.P,D4,4,DIN*%
%TO.N,Net-(D3-DOUT)*%
X126666548Y-96833454D03*
%TD*%
%TO.P,D7,1,VDD*%
%TO.N,+5V*%
X157131372Y-100298278D03*
%TO.P,D7,2,DOUT*%
%TO.N,Net-(D7-DOUT)*%
X159464824Y-97964824D03*
%TO.P,D7,3,VSS*%
%TO.N,GND*%
X156000000Y-94500000D03*
%TO.P,D7,4,DIN*%
%TO.N,Net-(D6-DOUT)*%
X153666548Y-96833454D03*
%TD*%
D11*
%TO.P,J1,1,Pin_1*%
%TO.N,GND*%
X92700000Y-94910000D03*
D12*
%TO.P,J1,2,Pin_2*%
%TO.N,Net-(D1-DIN)*%
X92700000Y-97450000D03*
%TO.P,J1,3,Pin_3*%
%TO.N,+5V*%
X92700000Y-99990000D03*
%TD*%
D10*
%TO.P,D2,1,VDD*%
%TO.N,+5V*%
X112131372Y-100298278D03*
%TO.P,D2,2,DOUT*%
%TO.N,Net-(D2-DOUT)*%
X114464824Y-97964824D03*
%TO.P,D2,3,VSS*%
%TO.N,GND*%
X111000000Y-94500000D03*
%TO.P,D2,4,DIN*%
%TO.N,Net-(D1-DOUT)*%
X108666548Y-96833454D03*
%TD*%
%TO.P,D9,1,VDD*%
%TO.N,+5V*%
X175131372Y-100298278D03*
%TO.P,D9,2,DOUT*%
%TO.N,Net-(D10-DIN)*%
X177464824Y-97964824D03*
%TO.P,D9,3,VSS*%
%TO.N,GND*%
X174000000Y-94500000D03*
%TO.P,D9,4,DIN*%
%TO.N,Net-(D8-DOUT)*%
X171666548Y-96833454D03*
%TD*%
%TO.P,D5,1,VDD*%
%TO.N,+5V*%
X139131372Y-100298278D03*
%TO.P,D5,2,DOUT*%
%TO.N,Net-(D5-DOUT)*%
X141464824Y-97964824D03*
%TO.P,D5,3,VSS*%
%TO.N,GND*%
X138000000Y-94500000D03*
%TO.P,D5,4,DIN*%
%TO.N,Net-(D4-DOUT)*%
X135666548Y-96833454D03*
%TD*%
%TO.P,D3,1,VDD*%
%TO.N,+5V*%
X121131372Y-100298278D03*
%TO.P,D3,2,DOUT*%
%TO.N,Net-(D3-DOUT)*%
X123464824Y-97964824D03*
%TO.P,D3,3,VSS*%
%TO.N,GND*%
X120000000Y-94500000D03*
%TO.P,D3,4,DIN*%
%TO.N,Net-(D2-DOUT)*%
X117666548Y-96833454D03*
%TD*%
D13*
%TO.N,GND*%
X174000000Y-94500000D02*
X183000000Y-94500000D01*
X165000000Y-94500000D02*
X174000000Y-94500000D01*
X156000000Y-94500000D02*
X165000000Y-94500000D01*
X147000000Y-94500000D02*
X156000000Y-94500000D01*
X138000000Y-94500000D02*
X147000000Y-94500000D01*
X129000000Y-94500000D02*
X138000000Y-94500000D01*
X120000000Y-94500000D02*
X129000000Y-94500000D01*
X111000000Y-94500000D02*
X120000000Y-94500000D01*
X102000000Y-94670861D02*
X110829139Y-94670861D01*
X110829139Y-94670861D02*
X111000000Y-94500000D01*
X93329139Y-94670861D02*
X102000000Y-94670861D01*
X93000000Y-95000000D02*
X93329139Y-94670861D01*
X92910000Y-94910000D02*
X93000000Y-95000000D01*
X92700000Y-94910000D02*
X92910000Y-94910000D01*
%TO.N,+5V*%
X166131372Y-100298278D02*
X175131372Y-100298278D01*
X103131372Y-100469139D02*
X111960511Y-100469139D01*
X139131372Y-100298278D02*
X148131372Y-100298278D01*
X112131372Y-100298278D02*
X121131372Y-100298278D01*
X92700000Y-99990000D02*
X102652233Y-99990000D01*
X102652233Y-99990000D02*
X103131372Y-100469139D01*
X111960511Y-100469139D02*
X112131372Y-100298278D01*
X175131372Y-100298278D02*
X184131372Y-100298278D01*
X130131372Y-100298278D02*
X139131372Y-100298278D01*
X148131372Y-100298278D02*
X157131372Y-100298278D01*
X157131372Y-100298278D02*
X166131372Y-100298278D01*
X121131372Y-100298278D02*
X130131372Y-100298278D01*
%TO.N,Net-(D6-DOUT)*%
X150464824Y-97964824D02*
X152535178Y-97964824D01*
%TO.N,Net-(D10-DIN)*%
X177464824Y-97964824D02*
X179535178Y-97964824D01*
X179535178Y-97964824D02*
X180666548Y-96833454D01*
%TO.N,Net-(D8-DOUT)*%
X170535178Y-97964824D02*
X171666548Y-96833454D01*
%TO.N,Net-(D3-DOUT)*%
X123464824Y-97964824D02*
X125535178Y-97964824D01*
%TO.N,Net-(D4-DOUT)*%
X134535178Y-97964824D02*
X135666548Y-96833454D01*
%TO.N,Net-(D5-DOUT)*%
X141464824Y-97964824D02*
X143535178Y-97964824D01*
%TO.N,Net-(D2-DOUT)*%
X114464824Y-97964824D02*
X116535178Y-97964824D01*
%TO.N,Net-(D4-DOUT)*%
X132464824Y-97964824D02*
X134535178Y-97964824D01*
%TO.N,Net-(D7-DOUT)*%
X159464824Y-97964824D02*
X161535178Y-97964824D01*
%TO.N,Net-(D5-DOUT)*%
X143535178Y-97964824D02*
X144666548Y-96833454D01*
%TO.N,Net-(D2-DOUT)*%
X116535178Y-97964824D02*
X117666548Y-96833454D01*
%TO.N,Net-(D3-DOUT)*%
X125535178Y-97964824D02*
X126666548Y-96833454D01*
%TO.N,Net-(D7-DOUT)*%
X161535178Y-97964824D02*
X162666548Y-96833454D01*
%TO.N,Net-(D1-DIN)*%
X99220863Y-97450000D02*
X99666548Y-97004315D01*
%TO.N,Net-(D6-DOUT)*%
X152535178Y-97964824D02*
X153666548Y-96833454D01*
%TO.N,Net-(D1-DIN)*%
X92700000Y-97450000D02*
X99220863Y-97450000D01*
%TO.N,Net-(D8-DOUT)*%
X168464824Y-97964824D02*
X170535178Y-97964824D01*
%TO.N,Net-(D1-DOUT)*%
X107364317Y-98135685D02*
X108666548Y-96833454D01*
X105464824Y-98135685D02*
X107364317Y-98135685D01*
%TD*%
%TA.AperFunction,NonConductor*%
G36*
X190942539Y-88520185D02*
G01*
X190988294Y-88572989D01*
X190999500Y-88624500D01*
X190999500Y-105875500D01*
X190979815Y-105942539D01*
X190927011Y-105988294D01*
X190875500Y-105999500D01*
X89624500Y-105999500D01*
X89557461Y-105979815D01*
X89511706Y-105927011D01*
X89500500Y-105875500D01*
X89500500Y-94012135D01*
X91349500Y-94012135D01*
X91349500Y-95807870D01*
X91349501Y-95807876D01*
X91355908Y-95867483D01*
X91406202Y-96002328D01*
X91406206Y-96002335D01*
X91492452Y-96117544D01*
X91492455Y-96117547D01*
X91607664Y-96203793D01*
X91607671Y-96203797D01*
X91739082Y-96252810D01*
X91795016Y-96294681D01*
X91819433Y-96360145D01*
X91804582Y-96428418D01*
X91783431Y-96456673D01*
X91669889Y-96570215D01*
X91544951Y-96742179D01*
X91448444Y-96931585D01*
X91448443Y-96931587D01*
X91448443Y-96931588D01*
X91436114Y-96969533D01*
X91382753Y-97133760D01*
X91349500Y-97343713D01*
X91349500Y-97556286D01*
X91380607Y-97752692D01*
X91382754Y-97766243D01*
X91436019Y-97930176D01*
X91448444Y-97968414D01*
X91544951Y-98157820D01*
X91669890Y-98329786D01*
X91820213Y-98480109D01*
X91992182Y-98605050D01*
X92000946Y-98609516D01*
X92051742Y-98657491D01*
X92068536Y-98725312D01*
X92045998Y-98791447D01*
X92000946Y-98830484D01*
X91992182Y-98834949D01*
X91820213Y-98959890D01*
X91669890Y-99110213D01*
X91544951Y-99282179D01*
X91448444Y-99471585D01*
X91382753Y-99673760D01*
X91349500Y-99883713D01*
X91349500Y-100096286D01*
X91367924Y-100212614D01*
X91382754Y-100306243D01*
X91399005Y-100356259D01*
X91448444Y-100508414D01*
X91544951Y-100697820D01*
X91669890Y-100869786D01*
X91820213Y-101020109D01*
X91992179Y-101145048D01*
X91992181Y-101145049D01*
X91992184Y-101145051D01*
X92181588Y-101241557D01*
X92383757Y-101307246D01*
X92593713Y-101340500D01*
X92593714Y-101340500D01*
X92806286Y-101340500D01*
X92806287Y-101340500D01*
X93016243Y-101307246D01*
X93218412Y-101241557D01*
X93407816Y-101145051D01*
X93507712Y-101072473D01*
X93579786Y-101020109D01*
X93579788Y-101020106D01*
X93579792Y-101020104D01*
X93730104Y-100869792D01*
X93730106Y-100869788D01*
X93730109Y-100869786D01*
X93788661Y-100789193D01*
X93855051Y-100697816D01*
X93855349Y-100697230D01*
X93875235Y-100658205D01*
X93923209Y-100607409D01*
X93985719Y-100590500D01*
X101860562Y-100590500D01*
X101927601Y-100610185D01*
X101958937Y-100639012D01*
X101965212Y-100647190D01*
X101965215Y-100647193D01*
X102953313Y-101635290D01*
X102953319Y-101635295D01*
X102953323Y-101635299D01*
X102953326Y-101635301D01*
X103045704Y-101706187D01*
X103045706Y-101706188D01*
X103189353Y-101765689D01*
X103266428Y-101775836D01*
X103343503Y-101785983D01*
X103343504Y-101785983D01*
X103343505Y-101785983D01*
X103394887Y-101779218D01*
X103497655Y-101765689D01*
X103641302Y-101706188D01*
X103733685Y-101635300D01*
X103904555Y-101464430D01*
X104263027Y-101105958D01*
X104324350Y-101072473D01*
X104350708Y-101069639D01*
X111507162Y-101069639D01*
X111574201Y-101089324D01*
X111594843Y-101105958D01*
X111953323Y-101464438D01*
X111953326Y-101464440D01*
X111953327Y-101464441D01*
X112045704Y-101535326D01*
X112045706Y-101535327D01*
X112189353Y-101594828D01*
X112266428Y-101604975D01*
X112343503Y-101615122D01*
X112343504Y-101615122D01*
X112343505Y-101615122D01*
X112394887Y-101608357D01*
X112497655Y-101594828D01*
X112641302Y-101535327D01*
X112733685Y-101464439D01*
X112956569Y-101241555D01*
X113263027Y-100935097D01*
X113324350Y-100901612D01*
X113350708Y-100898778D01*
X120336300Y-100898778D01*
X120403339Y-100918463D01*
X120423981Y-100935097D01*
X120953314Y-101464430D01*
X120953319Y-101464434D01*
X120953323Y-101464438D01*
X120953326Y-101464440D01*
X121045704Y-101535326D01*
X121045706Y-101535327D01*
X121189353Y-101594828D01*
X121266428Y-101604975D01*
X121343503Y-101615122D01*
X121343504Y-101615122D01*
X121343505Y-101615122D01*
X121394887Y-101608357D01*
X121497655Y-101594828D01*
X121641302Y-101535327D01*
X121733685Y-101464439D01*
X121956569Y-101241555D01*
X122263027Y-100935097D01*
X122324350Y-100901612D01*
X122350708Y-100898778D01*
X129336300Y-100898778D01*
X129403339Y-100918463D01*
X129423981Y-100935097D01*
X129953314Y-101464430D01*
X129953319Y-101464434D01*
X129953323Y-101464438D01*
X129953326Y-101464440D01*
X130045704Y-101535326D01*
X130045706Y-101535327D01*
X130189353Y-101594828D01*
X130266428Y-101604975D01*
X130343503Y-101615122D01*
X130343504Y-101615122D01*
X130343505Y-101615122D01*
X130394887Y-101608357D01*
X130497655Y-101594828D01*
X130641302Y-101535327D01*
X130733685Y-101464439D01*
X130956569Y-101241555D01*
X131263027Y-100935097D01*
X131324350Y-100901612D01*
X131350708Y-100898778D01*
X138336300Y-100898778D01*
X138403339Y-100918463D01*
X138423981Y-100935097D01*
X138953314Y-101464430D01*
X138953319Y-101464434D01*
X138953323Y-101464438D01*
X138953326Y-101464440D01*
X139045704Y-101535326D01*
X139045706Y-101535327D01*
X139189353Y-101594828D01*
X139266428Y-101604975D01*
X139343503Y-101615122D01*
X139343504Y-101615122D01*
X139343505Y-101615122D01*
X139394887Y-101608357D01*
X139497655Y-101594828D01*
X139641302Y-101535327D01*
X139733685Y-101464439D01*
X139956569Y-101241555D01*
X140263027Y-100935097D01*
X140324350Y-100901612D01*
X140350708Y-100898778D01*
X147336300Y-100898778D01*
X147403339Y-100918463D01*
X147423981Y-100935097D01*
X147953314Y-101464430D01*
X147953319Y-101464434D01*
X147953323Y-101464438D01*
X147953326Y-101464440D01*
X148045704Y-101535326D01*
X148045706Y-101535327D01*
X148189353Y-101594828D01*
X148266428Y-101604975D01*
X148343503Y-101615122D01*
X148343504Y-101615122D01*
X148343505Y-101615122D01*
X148394887Y-101608357D01*
X148497655Y-101594828D01*
X148641302Y-101535327D01*
X148733685Y-101464439D01*
X148956569Y-101241555D01*
X149263027Y-100935097D01*
X149324350Y-100901612D01*
X149350708Y-100898778D01*
X156336300Y-100898778D01*
X156403339Y-100918463D01*
X156423981Y-100935097D01*
X156953314Y-101464430D01*
X156953319Y-101464434D01*
X156953323Y-101464438D01*
X156953326Y-101464440D01*
X157045704Y-101535326D01*
X157045706Y-101535327D01*
X157189353Y-101594828D01*
X157266428Y-101604975D01*
X157343503Y-101615122D01*
X157343504Y-101615122D01*
X157343505Y-101615122D01*
X157394887Y-101608357D01*
X157497655Y-101594828D01*
X157641302Y-101535327D01*
X157733685Y-101464439D01*
X157956569Y-101241555D01*
X158263027Y-100935097D01*
X158324350Y-100901612D01*
X158350708Y-100898778D01*
X165336300Y-100898778D01*
X165403339Y-100918463D01*
X165423981Y-100935097D01*
X165953314Y-101464430D01*
X165953319Y-101464434D01*
X165953323Y-101464438D01*
X165953326Y-101464440D01*
X166045704Y-101535326D01*
X166045706Y-101535327D01*
X166189353Y-101594828D01*
X166266428Y-101604975D01*
X166343503Y-101615122D01*
X166343504Y-101615122D01*
X166343505Y-101615122D01*
X166394887Y-101608357D01*
X166497655Y-101594828D01*
X166641302Y-101535327D01*
X166733685Y-101464439D01*
X166956569Y-101241555D01*
X167263027Y-100935097D01*
X167324350Y-100901612D01*
X167350708Y-100898778D01*
X174336300Y-100898778D01*
X174403339Y-100918463D01*
X174423981Y-100935097D01*
X174953314Y-101464430D01*
X174953319Y-101464434D01*
X174953323Y-101464438D01*
X174953326Y-101464440D01*
X175045704Y-101535326D01*
X175045706Y-101535327D01*
X175189353Y-101594828D01*
X175266428Y-101604975D01*
X175343503Y-101615122D01*
X175343504Y-101615122D01*
X175343505Y-101615122D01*
X175394887Y-101608357D01*
X175497655Y-101594828D01*
X175641302Y-101535327D01*
X175733685Y-101464439D01*
X175956569Y-101241555D01*
X176263027Y-100935097D01*
X176324350Y-100901612D01*
X176350708Y-100898778D01*
X183336300Y-100898778D01*
X183403339Y-100918463D01*
X183423981Y-100935097D01*
X183953314Y-101464430D01*
X183953319Y-101464434D01*
X183953323Y-101464438D01*
X183953326Y-101464440D01*
X184045704Y-101535326D01*
X184045706Y-101535327D01*
X184189353Y-101594828D01*
X184266428Y-101604975D01*
X184343503Y-101615122D01*
X184343504Y-101615122D01*
X184343505Y-101615122D01*
X184394887Y-101608357D01*
X184497655Y-101594828D01*
X184641302Y-101535327D01*
X184733685Y-101464439D01*
X185297532Y-100900591D01*
X185368421Y-100808208D01*
X185427922Y-100664561D01*
X185448216Y-100510410D01*
X185427922Y-100356259D01*
X185368421Y-100212612D01*
X185297533Y-100120229D01*
X185297528Y-100120223D01*
X184309430Y-99132126D01*
X184309421Y-99132118D01*
X184217039Y-99061229D01*
X184217035Y-99061227D01*
X184073391Y-99001728D01*
X184073389Y-99001727D01*
X183919241Y-98981434D01*
X183919239Y-98981434D01*
X183765090Y-99001727D01*
X183765088Y-99001728D01*
X183621444Y-99061227D01*
X183621441Y-99061229D01*
X183529060Y-99132115D01*
X183529053Y-99132121D01*
X182999717Y-99661459D01*
X182938394Y-99694944D01*
X182912036Y-99697778D01*
X175926444Y-99697778D01*
X175859405Y-99678093D01*
X175838763Y-99661459D01*
X175309430Y-99132126D01*
X175309421Y-99132118D01*
X175217039Y-99061229D01*
X175217035Y-99061227D01*
X175073391Y-99001728D01*
X175073389Y-99001727D01*
X174919241Y-98981434D01*
X174919239Y-98981434D01*
X174765090Y-99001727D01*
X174765088Y-99001728D01*
X174621444Y-99061227D01*
X174621441Y-99061229D01*
X174529060Y-99132115D01*
X174529053Y-99132121D01*
X173999717Y-99661459D01*
X173938394Y-99694944D01*
X173912036Y-99697778D01*
X166926444Y-99697778D01*
X166859405Y-99678093D01*
X166838763Y-99661459D01*
X166309430Y-99132126D01*
X166309421Y-99132118D01*
X166217039Y-99061229D01*
X166217035Y-99061227D01*
X166073391Y-99001728D01*
X166073389Y-99001727D01*
X165919241Y-98981434D01*
X165919239Y-98981434D01*
X165765090Y-99001727D01*
X165765088Y-99001728D01*
X165621444Y-99061227D01*
X165621441Y-99061229D01*
X165529060Y-99132115D01*
X165529053Y-99132121D01*
X164999717Y-99661459D01*
X164938394Y-99694944D01*
X164912036Y-99697778D01*
X157926444Y-99697778D01*
X157859405Y-99678093D01*
X157838763Y-99661459D01*
X157309430Y-99132126D01*
X157309421Y-99132118D01*
X157217039Y-99061229D01*
X157217035Y-99061227D01*
X157073391Y-99001728D01*
X157073389Y-99001727D01*
X156919241Y-98981434D01*
X156919239Y-98981434D01*
X156765090Y-99001727D01*
X156765088Y-99001728D01*
X156621444Y-99061227D01*
X156621441Y-99061229D01*
X156529060Y-99132115D01*
X156529053Y-99132121D01*
X155999717Y-99661459D01*
X155938394Y-99694944D01*
X155912036Y-99697778D01*
X148926444Y-99697778D01*
X148859405Y-99678093D01*
X148838763Y-99661459D01*
X148309430Y-99132126D01*
X148309421Y-99132118D01*
X148217039Y-99061229D01*
X148217035Y-99061227D01*
X148073391Y-99001728D01*
X148073389Y-99001727D01*
X147919241Y-98981434D01*
X147919239Y-98981434D01*
X147765090Y-99001727D01*
X147765088Y-99001728D01*
X147621444Y-99061227D01*
X147621441Y-99061229D01*
X147529060Y-99132115D01*
X147529053Y-99132121D01*
X146999717Y-99661459D01*
X146938394Y-99694944D01*
X146912036Y-99697778D01*
X139926444Y-99697778D01*
X139859405Y-99678093D01*
X139838763Y-99661459D01*
X139309430Y-99132126D01*
X139309421Y-99132118D01*
X139217039Y-99061229D01*
X139217035Y-99061227D01*
X139073391Y-99001728D01*
X139073389Y-99001727D01*
X138919241Y-98981434D01*
X138919239Y-98981434D01*
X138765090Y-99001727D01*
X138765088Y-99001728D01*
X138621444Y-99061227D01*
X138621441Y-99061229D01*
X138529060Y-99132115D01*
X138529053Y-99132121D01*
X137999717Y-99661459D01*
X137938394Y-99694944D01*
X137912036Y-99697778D01*
X130926444Y-99697778D01*
X130859405Y-99678093D01*
X130838763Y-99661459D01*
X130309430Y-99132126D01*
X130309421Y-99132118D01*
X130217039Y-99061229D01*
X130217035Y-99061227D01*
X130073391Y-99001728D01*
X130073389Y-99001727D01*
X129919241Y-98981434D01*
X129919239Y-98981434D01*
X129765090Y-99001727D01*
X129765088Y-99001728D01*
X129621444Y-99061227D01*
X129621441Y-99061229D01*
X129529060Y-99132115D01*
X129529053Y-99132121D01*
X128999717Y-99661459D01*
X128938394Y-99694944D01*
X128912036Y-99697778D01*
X121926444Y-99697778D01*
X121859405Y-99678093D01*
X121838763Y-99661459D01*
X121309430Y-99132126D01*
X121309421Y-99132118D01*
X121217039Y-99061229D01*
X121217035Y-99061227D01*
X121073391Y-99001728D01*
X121073389Y-99001727D01*
X120919241Y-98981434D01*
X120919239Y-98981434D01*
X120765090Y-99001727D01*
X120765088Y-99001728D01*
X120621444Y-99061227D01*
X120621441Y-99061229D01*
X120529060Y-99132115D01*
X120529053Y-99132121D01*
X119999717Y-99661459D01*
X119938394Y-99694944D01*
X119912036Y-99697778D01*
X112926444Y-99697778D01*
X112859405Y-99678093D01*
X112838763Y-99661459D01*
X112309430Y-99132126D01*
X112309421Y-99132118D01*
X112217039Y-99061229D01*
X112217035Y-99061227D01*
X112073391Y-99001728D01*
X112073389Y-99001727D01*
X111919241Y-98981434D01*
X111919239Y-98981434D01*
X111765090Y-99001727D01*
X111765088Y-99001728D01*
X111621444Y-99061227D01*
X111621441Y-99061229D01*
X111529060Y-99132115D01*
X111529053Y-99132121D01*
X110965220Y-99695955D01*
X110965212Y-99695964D01*
X110894323Y-99788346D01*
X110894322Y-99788348D01*
X110892773Y-99792090D01*
X110890619Y-99794762D01*
X110890257Y-99795390D01*
X110890159Y-99795333D01*
X110848932Y-99846494D01*
X110782638Y-99868560D01*
X110778211Y-99868639D01*
X103926444Y-99868639D01*
X103859405Y-99848954D01*
X103838763Y-99832320D01*
X103309430Y-99302987D01*
X103309421Y-99302979D01*
X103217039Y-99232090D01*
X103217035Y-99232088D01*
X103073391Y-99172589D01*
X103073389Y-99172588D01*
X102919241Y-99152295D01*
X102919239Y-99152295D01*
X102765090Y-99172588D01*
X102765088Y-99172589D01*
X102621444Y-99232088D01*
X102621441Y-99232090D01*
X102529060Y-99302976D01*
X102529054Y-99302981D01*
X102478857Y-99353180D01*
X102417534Y-99386666D01*
X102391175Y-99389500D01*
X93985719Y-99389500D01*
X93918680Y-99369815D01*
X93875235Y-99321795D01*
X93855052Y-99282185D01*
X93855051Y-99282184D01*
X93730109Y-99110213D01*
X93579786Y-98959890D01*
X93407820Y-98834951D01*
X93407115Y-98834591D01*
X93399054Y-98830485D01*
X93348259Y-98782512D01*
X93331463Y-98714692D01*
X93353999Y-98648556D01*
X93399054Y-98609515D01*
X93407816Y-98605051D01*
X93462496Y-98565324D01*
X93579786Y-98480109D01*
X93579788Y-98480106D01*
X93579792Y-98480104D01*
X93730104Y-98329792D01*
X93730106Y-98329788D01*
X93730109Y-98329786D01*
X93788661Y-98249193D01*
X93855051Y-98157816D01*
X93858882Y-98150298D01*
X93875235Y-98118205D01*
X93923209Y-98067409D01*
X93985719Y-98050500D01*
X99141802Y-98050500D01*
X99141806Y-98050501D01*
X99299920Y-98050501D01*
X99303616Y-98049510D01*
X99315379Y-98049442D01*
X99341787Y-98057029D01*
X99368943Y-98061262D01*
X99377527Y-98067298D01*
X99382532Y-98068736D01*
X99387289Y-98074161D01*
X99403783Y-98085759D01*
X99488499Y-98170475D01*
X99488502Y-98170477D01*
X99488503Y-98170478D01*
X99580880Y-98241363D01*
X99580882Y-98241364D01*
X99724529Y-98300865D01*
X99801604Y-98311012D01*
X99878679Y-98321159D01*
X99878680Y-98321159D01*
X99878681Y-98321159D01*
X99930063Y-98314394D01*
X100032831Y-98300865D01*
X100176478Y-98241364D01*
X100268861Y-98170476D01*
X100515786Y-97923551D01*
X104147980Y-97923551D01*
X104147980Y-97923554D01*
X104168273Y-98077702D01*
X104168274Y-98077704D01*
X104227773Y-98221348D01*
X104227775Y-98221351D01*
X104298661Y-98313732D01*
X104298667Y-98313739D01*
X105286765Y-99301836D01*
X105286771Y-99301841D01*
X105286775Y-99301845D01*
X105312774Y-99321795D01*
X105379156Y-99372733D01*
X105379158Y-99372734D01*
X105522805Y-99432235D01*
X105599880Y-99442382D01*
X105676955Y-99452529D01*
X105676956Y-99452529D01*
X105676957Y-99452529D01*
X105728339Y-99445764D01*
X105831107Y-99432235D01*
X105974754Y-99372734D01*
X106067137Y-99301846D01*
X106307756Y-99061227D01*
X106596479Y-98772504D01*
X106657802Y-98739019D01*
X106684160Y-98736185D01*
X107277648Y-98736185D01*
X107277664Y-98736186D01*
X107285260Y-98736186D01*
X107443371Y-98736186D01*
X107443374Y-98736186D01*
X107596102Y-98695262D01*
X107646221Y-98666324D01*
X107733033Y-98616205D01*
X107844837Y-98504401D01*
X107844837Y-98504399D01*
X107855045Y-98494192D01*
X107855046Y-98494189D01*
X108333026Y-98016209D01*
X108394348Y-97982726D01*
X108464040Y-97987710D01*
X108496186Y-98005512D01*
X108580882Y-98070503D01*
X108580884Y-98070504D01*
X108613424Y-98083982D01*
X108724529Y-98130004D01*
X108801604Y-98140151D01*
X108878679Y-98150298D01*
X108878680Y-98150298D01*
X108878681Y-98150298D01*
X108930063Y-98143533D01*
X109032831Y-98130004D01*
X109176478Y-98070503D01*
X109268861Y-97999615D01*
X109515786Y-97752690D01*
X113147980Y-97752690D01*
X113147980Y-97752693D01*
X113168273Y-97906841D01*
X113168274Y-97906843D01*
X113227773Y-98050487D01*
X113227775Y-98050490D01*
X113298661Y-98142871D01*
X113298667Y-98142878D01*
X114286765Y-99130975D01*
X114286771Y-99130980D01*
X114286775Y-99130984D01*
X114314548Y-99152295D01*
X114379156Y-99201872D01*
X114379158Y-99201873D01*
X114522805Y-99261374D01*
X114599880Y-99271521D01*
X114676955Y-99281668D01*
X114676956Y-99281668D01*
X114676957Y-99281668D01*
X114728339Y-99274903D01*
X114831107Y-99261374D01*
X114974754Y-99201873D01*
X115067137Y-99130985D01*
X115238232Y-98959890D01*
X115596479Y-98601643D01*
X115657802Y-98568158D01*
X115684160Y-98565324D01*
X116448509Y-98565324D01*
X116448525Y-98565325D01*
X116456121Y-98565325D01*
X116614232Y-98565325D01*
X116614235Y-98565325D01*
X116766963Y-98524401D01*
X116843687Y-98480104D01*
X116903894Y-98445344D01*
X117015698Y-98333540D01*
X117015698Y-98333538D01*
X117025902Y-98323335D01*
X117025905Y-98323330D01*
X117333026Y-98016210D01*
X117394348Y-97982726D01*
X117464040Y-97987710D01*
X117496186Y-98005512D01*
X117580882Y-98070503D01*
X117580884Y-98070504D01*
X117613424Y-98083982D01*
X117724529Y-98130004D01*
X117801604Y-98140151D01*
X117878679Y-98150298D01*
X117878680Y-98150298D01*
X117878681Y-98150298D01*
X117930063Y-98143533D01*
X118032831Y-98130004D01*
X118176478Y-98070503D01*
X118268861Y-97999615D01*
X118515786Y-97752690D01*
X122147980Y-97752690D01*
X122147980Y-97752693D01*
X122168273Y-97906841D01*
X122168274Y-97906843D01*
X122227773Y-98050487D01*
X122227775Y-98050490D01*
X122298661Y-98142871D01*
X122298667Y-98142878D01*
X123286765Y-99130975D01*
X123286771Y-99130980D01*
X123286775Y-99130984D01*
X123314548Y-99152295D01*
X123379156Y-99201872D01*
X123379158Y-99201873D01*
X123522805Y-99261374D01*
X123599880Y-99271521D01*
X123676955Y-99281668D01*
X123676956Y-99281668D01*
X123676957Y-99281668D01*
X123728339Y-99274903D01*
X123831107Y-99261374D01*
X123974754Y-99201873D01*
X124067137Y-99130985D01*
X124238232Y-98959890D01*
X124596479Y-98601643D01*
X124657802Y-98568158D01*
X124684160Y-98565324D01*
X125448509Y-98565324D01*
X125448525Y-98565325D01*
X125456121Y-98565325D01*
X125614232Y-98565325D01*
X125614235Y-98565325D01*
X125766963Y-98524401D01*
X125843687Y-98480104D01*
X125903894Y-98445344D01*
X126015698Y-98333540D01*
X126015698Y-98333538D01*
X126025902Y-98323335D01*
X126025905Y-98323330D01*
X126333026Y-98016210D01*
X126394348Y-97982726D01*
X126464040Y-97987710D01*
X126496186Y-98005512D01*
X126580882Y-98070503D01*
X126580884Y-98070504D01*
X126613424Y-98083982D01*
X126724529Y-98130004D01*
X126801604Y-98140151D01*
X126878679Y-98150298D01*
X126878680Y-98150298D01*
X126878681Y-98150298D01*
X126930063Y-98143533D01*
X127032831Y-98130004D01*
X127176478Y-98070503D01*
X127268861Y-97999615D01*
X127515786Y-97752690D01*
X131147980Y-97752690D01*
X131147980Y-97752693D01*
X131168273Y-97906841D01*
X131168274Y-97906843D01*
X131227773Y-98050487D01*
X131227775Y-98050490D01*
X131298661Y-98142871D01*
X131298667Y-98142878D01*
X132286765Y-99130975D01*
X132286771Y-99130980D01*
X132286775Y-99130984D01*
X132314548Y-99152295D01*
X132379156Y-99201872D01*
X132379158Y-99201873D01*
X132522805Y-99261374D01*
X132599880Y-99271521D01*
X132676955Y-99281668D01*
X132676956Y-99281668D01*
X132676957Y-99281668D01*
X132728339Y-99274903D01*
X132831107Y-99261374D01*
X132974754Y-99201873D01*
X133067137Y-99130985D01*
X133238232Y-98959890D01*
X133596479Y-98601643D01*
X133657802Y-98568158D01*
X133684160Y-98565324D01*
X134448509Y-98565324D01*
X134448525Y-98565325D01*
X134456121Y-98565325D01*
X134614232Y-98565325D01*
X134614235Y-98565325D01*
X134766963Y-98524401D01*
X134843687Y-98480104D01*
X134903894Y-98445344D01*
X135015698Y-98333540D01*
X135015698Y-98333538D01*
X135025902Y-98323335D01*
X135025905Y-98323330D01*
X135333026Y-98016210D01*
X135394348Y-97982726D01*
X135464040Y-97987710D01*
X135496186Y-98005512D01*
X135580882Y-98070503D01*
X135580884Y-98070504D01*
X135613424Y-98083982D01*
X135724529Y-98130004D01*
X135801604Y-98140151D01*
X135878679Y-98150298D01*
X135878680Y-98150298D01*
X135878681Y-98150298D01*
X135930063Y-98143533D01*
X136032831Y-98130004D01*
X136176478Y-98070503D01*
X136268861Y-97999615D01*
X136515786Y-97752690D01*
X140147980Y-97752690D01*
X140147980Y-97752693D01*
X140168273Y-97906841D01*
X140168274Y-97906843D01*
X140227773Y-98050487D01*
X140227775Y-98050490D01*
X140298661Y-98142871D01*
X140298667Y-98142878D01*
X141286765Y-99130975D01*
X141286771Y-99130980D01*
X141286775Y-99130984D01*
X141314548Y-99152295D01*
X141379156Y-99201872D01*
X141379158Y-99201873D01*
X141522805Y-99261374D01*
X141599880Y-99271521D01*
X141676955Y-99281668D01*
X141676956Y-99281668D01*
X141676957Y-99281668D01*
X141728339Y-99274903D01*
X141831107Y-99261374D01*
X141974754Y-99201873D01*
X142067137Y-99130985D01*
X142238232Y-98959890D01*
X142596479Y-98601643D01*
X142657802Y-98568158D01*
X142684160Y-98565324D01*
X143448509Y-98565324D01*
X143448525Y-98565325D01*
X143456121Y-98565325D01*
X143614232Y-98565325D01*
X143614235Y-98565325D01*
X143766963Y-98524401D01*
X143843687Y-98480104D01*
X143903894Y-98445344D01*
X144015698Y-98333540D01*
X144015698Y-98333538D01*
X144025902Y-98323335D01*
X144025905Y-98323330D01*
X144333026Y-98016210D01*
X144394348Y-97982726D01*
X144464040Y-97987710D01*
X144496186Y-98005512D01*
X144580882Y-98070503D01*
X144580884Y-98070504D01*
X144613424Y-98083982D01*
X144724529Y-98130004D01*
X144801604Y-98140151D01*
X144878679Y-98150298D01*
X144878680Y-98150298D01*
X144878681Y-98150298D01*
X144930063Y-98143533D01*
X145032831Y-98130004D01*
X145176478Y-98070503D01*
X145268861Y-97999615D01*
X145515786Y-97752690D01*
X149147980Y-97752690D01*
X149147980Y-97752693D01*
X149168273Y-97906841D01*
X149168274Y-97906843D01*
X149227773Y-98050487D01*
X149227775Y-98050490D01*
X149298661Y-98142871D01*
X149298667Y-98142878D01*
X150286765Y-99130975D01*
X150286771Y-99130980D01*
X150286775Y-99130984D01*
X150314548Y-99152295D01*
X150379156Y-99201872D01*
X150379158Y-99201873D01*
X150522805Y-99261374D01*
X150599880Y-99271521D01*
X150676955Y-99281668D01*
X150676956Y-99281668D01*
X150676957Y-99281668D01*
X150728339Y-99274903D01*
X150831107Y-99261374D01*
X150974754Y-99201873D01*
X151067137Y-99130985D01*
X151238232Y-98959890D01*
X151596479Y-98601643D01*
X151657802Y-98568158D01*
X151684160Y-98565324D01*
X152448509Y-98565324D01*
X152448525Y-98565325D01*
X152456121Y-98565325D01*
X152614232Y-98565325D01*
X152614235Y-98565325D01*
X152766963Y-98524401D01*
X152843687Y-98480104D01*
X152903894Y-98445344D01*
X153015698Y-98333540D01*
X153015698Y-98333538D01*
X153025902Y-98323335D01*
X153025905Y-98323330D01*
X153333026Y-98016210D01*
X153394348Y-97982726D01*
X153464040Y-97987710D01*
X153496186Y-98005512D01*
X153580882Y-98070503D01*
X153580884Y-98070504D01*
X153613424Y-98083982D01*
X153724529Y-98130004D01*
X153801604Y-98140151D01*
X153878679Y-98150298D01*
X153878680Y-98150298D01*
X153878681Y-98150298D01*
X153930063Y-98143533D01*
X154032831Y-98130004D01*
X154176478Y-98070503D01*
X154268861Y-97999615D01*
X154515786Y-97752690D01*
X158147980Y-97752690D01*
X158147980Y-97752693D01*
X158168273Y-97906841D01*
X158168274Y-97906843D01*
X158227773Y-98050487D01*
X158227775Y-98050490D01*
X158298661Y-98142871D01*
X158298667Y-98142878D01*
X159286765Y-99130975D01*
X159286771Y-99130980D01*
X159286775Y-99130984D01*
X159314548Y-99152295D01*
X159379156Y-99201872D01*
X159379158Y-99201873D01*
X159522805Y-99261374D01*
X159599880Y-99271521D01*
X159676955Y-99281668D01*
X159676956Y-99281668D01*
X159676957Y-99281668D01*
X159728339Y-99274903D01*
X159831107Y-99261374D01*
X159974754Y-99201873D01*
X160067137Y-99130985D01*
X160238232Y-98959890D01*
X160596479Y-98601643D01*
X160657802Y-98568158D01*
X160684160Y-98565324D01*
X161448509Y-98565324D01*
X161448525Y-98565325D01*
X161456121Y-98565325D01*
X161614232Y-98565325D01*
X161614235Y-98565325D01*
X161766963Y-98524401D01*
X161843687Y-98480104D01*
X161903894Y-98445344D01*
X162015698Y-98333540D01*
X162015698Y-98333538D01*
X162025902Y-98323335D01*
X162025905Y-98323330D01*
X162333026Y-98016210D01*
X162394348Y-97982726D01*
X162464040Y-97987710D01*
X162496186Y-98005512D01*
X162580882Y-98070503D01*
X162580884Y-98070504D01*
X162613424Y-98083982D01*
X162724529Y-98130004D01*
X162801604Y-98140151D01*
X162878679Y-98150298D01*
X162878680Y-98150298D01*
X162878681Y-98150298D01*
X162930063Y-98143533D01*
X163032831Y-98130004D01*
X163176478Y-98070503D01*
X163268861Y-97999615D01*
X163515786Y-97752690D01*
X167147980Y-97752690D01*
X167147980Y-97752693D01*
X167168273Y-97906841D01*
X167168274Y-97906843D01*
X167227773Y-98050487D01*
X167227775Y-98050490D01*
X167298661Y-98142871D01*
X167298667Y-98142878D01*
X168286765Y-99130975D01*
X168286771Y-99130980D01*
X168286775Y-99130984D01*
X168314548Y-99152295D01*
X168379156Y-99201872D01*
X168379158Y-99201873D01*
X168522805Y-99261374D01*
X168599880Y-99271521D01*
X168676955Y-99281668D01*
X168676956Y-99281668D01*
X168676957Y-99281668D01*
X168728339Y-99274903D01*
X168831107Y-99261374D01*
X168974754Y-99201873D01*
X169067137Y-99130985D01*
X169238232Y-98959890D01*
X169596479Y-98601643D01*
X169657802Y-98568158D01*
X169684160Y-98565324D01*
X170448509Y-98565324D01*
X170448525Y-98565325D01*
X170456121Y-98565325D01*
X170614232Y-98565325D01*
X170614235Y-98565325D01*
X170766963Y-98524401D01*
X170843687Y-98480104D01*
X170903894Y-98445344D01*
X171015698Y-98333540D01*
X171015698Y-98333538D01*
X171025902Y-98323335D01*
X171025905Y-98323330D01*
X171333026Y-98016210D01*
X171394348Y-97982726D01*
X171464040Y-97987710D01*
X171496186Y-98005512D01*
X171580882Y-98070503D01*
X171580884Y-98070504D01*
X171613424Y-98083982D01*
X171724529Y-98130004D01*
X171801604Y-98140151D01*
X171878679Y-98150298D01*
X171878680Y-98150298D01*
X171878681Y-98150298D01*
X171930063Y-98143533D01*
X172032831Y-98130004D01*
X172176478Y-98070503D01*
X172268861Y-97999615D01*
X172515786Y-97752690D01*
X176147980Y-97752690D01*
X176147980Y-97752693D01*
X176168273Y-97906841D01*
X176168274Y-97906843D01*
X176227773Y-98050487D01*
X176227775Y-98050490D01*
X176298661Y-98142871D01*
X176298667Y-98142878D01*
X177286765Y-99130975D01*
X177286771Y-99130980D01*
X177286775Y-99130984D01*
X177314548Y-99152295D01*
X177379156Y-99201872D01*
X177379158Y-99201873D01*
X177522805Y-99261374D01*
X177599880Y-99271521D01*
X177676955Y-99281668D01*
X177676956Y-99281668D01*
X177676957Y-99281668D01*
X177728339Y-99274903D01*
X177831107Y-99261374D01*
X177974754Y-99201873D01*
X178067137Y-99130985D01*
X178238232Y-98959890D01*
X178596479Y-98601643D01*
X178657802Y-98568158D01*
X178684160Y-98565324D01*
X179448509Y-98565324D01*
X179448525Y-98565325D01*
X179456121Y-98565325D01*
X179614232Y-98565325D01*
X179614235Y-98565325D01*
X179766963Y-98524401D01*
X179843687Y-98480104D01*
X179903894Y-98445344D01*
X180015698Y-98333540D01*
X180015698Y-98333538D01*
X180025902Y-98323335D01*
X180025905Y-98323330D01*
X180333026Y-98016210D01*
X180394348Y-97982726D01*
X180464040Y-97987710D01*
X180496186Y-98005512D01*
X180580882Y-98070503D01*
X180580884Y-98070504D01*
X180613424Y-98083982D01*
X180724529Y-98130004D01*
X180801604Y-98140151D01*
X180878679Y-98150298D01*
X180878680Y-98150298D01*
X180878681Y-98150298D01*
X180930063Y-98143533D01*
X181032831Y-98130004D01*
X181176478Y-98070503D01*
X181268861Y-97999615D01*
X181515786Y-97752690D01*
X185147980Y-97752690D01*
X185147980Y-97752693D01*
X185168273Y-97906841D01*
X185168274Y-97906843D01*
X185227773Y-98050487D01*
X185227775Y-98050490D01*
X185298661Y-98142871D01*
X185298667Y-98142878D01*
X186286765Y-99130975D01*
X186286771Y-99130980D01*
X186286775Y-99130984D01*
X186314548Y-99152295D01*
X186379156Y-99201872D01*
X186379158Y-99201873D01*
X186522805Y-99261374D01*
X186599880Y-99271521D01*
X186676955Y-99281668D01*
X186676956Y-99281668D01*
X186676957Y-99281668D01*
X186728339Y-99274903D01*
X186831107Y-99261374D01*
X186974754Y-99201873D01*
X187067137Y-99130985D01*
X187630984Y-98567137D01*
X187701873Y-98474754D01*
X187761374Y-98331107D01*
X187781668Y-98176956D01*
X187778158Y-98150298D01*
X187767246Y-98067409D01*
X187761374Y-98022805D01*
X187701873Y-97879158D01*
X187630985Y-97786775D01*
X187630980Y-97786769D01*
X186642882Y-96798672D01*
X186642873Y-96798664D01*
X186550491Y-96727775D01*
X186550487Y-96727773D01*
X186406843Y-96668274D01*
X186406841Y-96668273D01*
X186252693Y-96647980D01*
X186252691Y-96647980D01*
X186098542Y-96668273D01*
X186098540Y-96668274D01*
X185954896Y-96727773D01*
X185954893Y-96727775D01*
X185862512Y-96798661D01*
X185862505Y-96798667D01*
X185298672Y-97362501D01*
X185298664Y-97362510D01*
X185227775Y-97454892D01*
X185227773Y-97454896D01*
X185168274Y-97598540D01*
X185168273Y-97598542D01*
X185147980Y-97752690D01*
X181515786Y-97752690D01*
X181611592Y-97656884D01*
X181832700Y-97435776D01*
X181832703Y-97435771D01*
X181832708Y-97435767D01*
X181903597Y-97343384D01*
X181963098Y-97199737D01*
X181980119Y-97070449D01*
X181983392Y-97045587D01*
X181983392Y-97045584D01*
X181963098Y-96891436D01*
X181963098Y-96891435D01*
X181903597Y-96747788D01*
X181832709Y-96655405D01*
X181832704Y-96655399D01*
X180844606Y-95667302D01*
X180844597Y-95667294D01*
X180752215Y-95596405D01*
X180752211Y-95596403D01*
X180608567Y-95536904D01*
X180608565Y-95536903D01*
X180454417Y-95516610D01*
X180454415Y-95516610D01*
X180300266Y-95536903D01*
X180300264Y-95536904D01*
X180156620Y-95596403D01*
X180156617Y-95596405D01*
X180064236Y-95667291D01*
X180064229Y-95667297D01*
X179500396Y-96231131D01*
X179500388Y-96231140D01*
X179429499Y-96323522D01*
X179429497Y-96323526D01*
X179369998Y-96467170D01*
X179369997Y-96467172D01*
X179349704Y-96621320D01*
X179349704Y-96621323D01*
X179369997Y-96775471D01*
X179369998Y-96775473D01*
X179429497Y-96919117D01*
X179429499Y-96919120D01*
X179494483Y-97003810D01*
X179494759Y-97004524D01*
X179495374Y-97004985D01*
X179507347Y-97037087D01*
X179519677Y-97068980D01*
X179519523Y-97069730D01*
X179519791Y-97070449D01*
X179512509Y-97103922D01*
X179505638Y-97137424D01*
X179505049Y-97138220D01*
X179504940Y-97138722D01*
X179483789Y-97166977D01*
X179322760Y-97328006D01*
X179261440Y-97361490D01*
X179235081Y-97364324D01*
X178259896Y-97364324D01*
X178192857Y-97344639D01*
X178172215Y-97328005D01*
X177642882Y-96798672D01*
X177642873Y-96798664D01*
X177550491Y-96727775D01*
X177550487Y-96727773D01*
X177406843Y-96668274D01*
X177406841Y-96668273D01*
X177252693Y-96647980D01*
X177252691Y-96647980D01*
X177098542Y-96668273D01*
X177098540Y-96668274D01*
X176954896Y-96727773D01*
X176954893Y-96727775D01*
X176862512Y-96798661D01*
X176862505Y-96798667D01*
X176298672Y-97362501D01*
X176298664Y-97362510D01*
X176227775Y-97454892D01*
X176227773Y-97454896D01*
X176168274Y-97598540D01*
X176168273Y-97598542D01*
X176147980Y-97752690D01*
X172515786Y-97752690D01*
X172611592Y-97656884D01*
X172832700Y-97435776D01*
X172832703Y-97435771D01*
X172832708Y-97435767D01*
X172903597Y-97343384D01*
X172963098Y-97199737D01*
X172980119Y-97070449D01*
X172983392Y-97045587D01*
X172983392Y-97045584D01*
X172963098Y-96891436D01*
X172963098Y-96891435D01*
X172903597Y-96747788D01*
X172832709Y-96655405D01*
X172832704Y-96655399D01*
X171844606Y-95667302D01*
X171844597Y-95667294D01*
X171752215Y-95596405D01*
X171752211Y-95596403D01*
X171608567Y-95536904D01*
X171608565Y-95536903D01*
X171454417Y-95516610D01*
X171454415Y-95516610D01*
X171300266Y-95536903D01*
X171300264Y-95536904D01*
X171156620Y-95596403D01*
X171156617Y-95596405D01*
X171064236Y-95667291D01*
X171064229Y-95667297D01*
X170500396Y-96231131D01*
X170500388Y-96231140D01*
X170429499Y-96323522D01*
X170429497Y-96323526D01*
X170369998Y-96467170D01*
X170369997Y-96467172D01*
X170349704Y-96621320D01*
X170349704Y-96621323D01*
X170369997Y-96775471D01*
X170369998Y-96775473D01*
X170429497Y-96919117D01*
X170429499Y-96919120D01*
X170494483Y-97003810D01*
X170494759Y-97004524D01*
X170495374Y-97004985D01*
X170507347Y-97037087D01*
X170519677Y-97068980D01*
X170519523Y-97069730D01*
X170519791Y-97070449D01*
X170512509Y-97103922D01*
X170505638Y-97137424D01*
X170505049Y-97138220D01*
X170504940Y-97138722D01*
X170483789Y-97166977D01*
X170322760Y-97328006D01*
X170261440Y-97361490D01*
X170235081Y-97364324D01*
X169259896Y-97364324D01*
X169192857Y-97344639D01*
X169172215Y-97328005D01*
X168642882Y-96798672D01*
X168642873Y-96798664D01*
X168550491Y-96727775D01*
X168550487Y-96727773D01*
X168406843Y-96668274D01*
X168406841Y-96668273D01*
X168252693Y-96647980D01*
X168252691Y-96647980D01*
X168098542Y-96668273D01*
X168098540Y-96668274D01*
X167954896Y-96727773D01*
X167954893Y-96727775D01*
X167862512Y-96798661D01*
X167862505Y-96798667D01*
X167298672Y-97362501D01*
X167298664Y-97362510D01*
X167227775Y-97454892D01*
X167227773Y-97454896D01*
X167168274Y-97598540D01*
X167168273Y-97598542D01*
X167147980Y-97752690D01*
X163515786Y-97752690D01*
X163611592Y-97656884D01*
X163832700Y-97435776D01*
X163832703Y-97435771D01*
X163832708Y-97435767D01*
X163903597Y-97343384D01*
X163963098Y-97199737D01*
X163980119Y-97070449D01*
X163983392Y-97045587D01*
X163983392Y-97045584D01*
X163963098Y-96891436D01*
X163963098Y-96891435D01*
X163903597Y-96747788D01*
X163832709Y-96655405D01*
X163832704Y-96655399D01*
X162844606Y-95667302D01*
X162844597Y-95667294D01*
X162752215Y-95596405D01*
X162752211Y-95596403D01*
X162608567Y-95536904D01*
X162608565Y-95536903D01*
X162454417Y-95516610D01*
X162454415Y-95516610D01*
X162300266Y-95536903D01*
X162300264Y-95536904D01*
X162156620Y-95596403D01*
X162156617Y-95596405D01*
X162064236Y-95667291D01*
X162064229Y-95667297D01*
X161500396Y-96231131D01*
X161500388Y-96231140D01*
X161429499Y-96323522D01*
X161429497Y-96323526D01*
X161369998Y-96467170D01*
X161369997Y-96467172D01*
X161349704Y-96621320D01*
X161349704Y-96621323D01*
X161369997Y-96775471D01*
X161369998Y-96775473D01*
X161429497Y-96919117D01*
X161429499Y-96919120D01*
X161494483Y-97003810D01*
X161494759Y-97004524D01*
X161495374Y-97004985D01*
X161507347Y-97037087D01*
X161519677Y-97068980D01*
X161519523Y-97069730D01*
X161519791Y-97070449D01*
X161512509Y-97103922D01*
X161505638Y-97137424D01*
X161505049Y-97138220D01*
X161504940Y-97138722D01*
X161483789Y-97166977D01*
X161322760Y-97328006D01*
X161261440Y-97361490D01*
X161235081Y-97364324D01*
X160259896Y-97364324D01*
X160192857Y-97344639D01*
X160172215Y-97328005D01*
X159642882Y-96798672D01*
X159642873Y-96798664D01*
X159550491Y-96727775D01*
X159550487Y-96727773D01*
X159406843Y-96668274D01*
X159406841Y-96668273D01*
X159252693Y-96647980D01*
X159252691Y-96647980D01*
X159098542Y-96668273D01*
X159098540Y-96668274D01*
X158954896Y-96727773D01*
X158954893Y-96727775D01*
X158862512Y-96798661D01*
X158862505Y-96798667D01*
X158298672Y-97362501D01*
X158298664Y-97362510D01*
X158227775Y-97454892D01*
X158227773Y-97454896D01*
X158168274Y-97598540D01*
X158168273Y-97598542D01*
X158147980Y-97752690D01*
X154515786Y-97752690D01*
X154611592Y-97656884D01*
X154832700Y-97435776D01*
X154832703Y-97435771D01*
X154832708Y-97435767D01*
X154903597Y-97343384D01*
X154963098Y-97199737D01*
X154980119Y-97070449D01*
X154983392Y-97045587D01*
X154983392Y-97045584D01*
X154963098Y-96891436D01*
X154963098Y-96891435D01*
X154903597Y-96747788D01*
X154832709Y-96655405D01*
X154832704Y-96655399D01*
X153844606Y-95667302D01*
X153844597Y-95667294D01*
X153752215Y-95596405D01*
X153752211Y-95596403D01*
X153608567Y-95536904D01*
X153608565Y-95536903D01*
X153454417Y-95516610D01*
X153454415Y-95516610D01*
X153300266Y-95536903D01*
X153300264Y-95536904D01*
X153156620Y-95596403D01*
X153156617Y-95596405D01*
X153064236Y-95667291D01*
X153064229Y-95667297D01*
X152500396Y-96231131D01*
X152500388Y-96231140D01*
X152429499Y-96323522D01*
X152429497Y-96323526D01*
X152369998Y-96467170D01*
X152369997Y-96467172D01*
X152349704Y-96621320D01*
X152349704Y-96621323D01*
X152369997Y-96775471D01*
X152369998Y-96775473D01*
X152429497Y-96919117D01*
X152429499Y-96919120D01*
X152494483Y-97003810D01*
X152494759Y-97004524D01*
X152495374Y-97004985D01*
X152507347Y-97037087D01*
X152519677Y-97068980D01*
X152519523Y-97069730D01*
X152519791Y-97070449D01*
X152512509Y-97103922D01*
X152505638Y-97137424D01*
X152505049Y-97138220D01*
X152504940Y-97138722D01*
X152483789Y-97166977D01*
X152322760Y-97328006D01*
X152261440Y-97361490D01*
X152235081Y-97364324D01*
X151259896Y-97364324D01*
X151192857Y-97344639D01*
X151172215Y-97328005D01*
X150642882Y-96798672D01*
X150642873Y-96798664D01*
X150550491Y-96727775D01*
X150550487Y-96727773D01*
X150406843Y-96668274D01*
X150406841Y-96668273D01*
X150252693Y-96647980D01*
X150252691Y-96647980D01*
X150098542Y-96668273D01*
X150098540Y-96668274D01*
X149954896Y-96727773D01*
X149954893Y-96727775D01*
X149862512Y-96798661D01*
X149862505Y-96798667D01*
X149298672Y-97362501D01*
X149298664Y-97362510D01*
X149227775Y-97454892D01*
X149227773Y-97454896D01*
X149168274Y-97598540D01*
X149168273Y-97598542D01*
X149147980Y-97752690D01*
X145515786Y-97752690D01*
X145611592Y-97656884D01*
X145832700Y-97435776D01*
X145832703Y-97435771D01*
X145832708Y-97435767D01*
X145903597Y-97343384D01*
X145963098Y-97199737D01*
X145980119Y-97070449D01*
X145983392Y-97045587D01*
X145983392Y-97045584D01*
X145963098Y-96891436D01*
X145963098Y-96891435D01*
X145903597Y-96747788D01*
X145832709Y-96655405D01*
X145832704Y-96655399D01*
X144844606Y-95667302D01*
X144844597Y-95667294D01*
X144752215Y-95596405D01*
X144752211Y-95596403D01*
X144608567Y-95536904D01*
X144608565Y-95536903D01*
X144454417Y-95516610D01*
X144454415Y-95516610D01*
X144300266Y-95536903D01*
X144300264Y-95536904D01*
X144156620Y-95596403D01*
X144156617Y-95596405D01*
X144064236Y-95667291D01*
X144064229Y-95667297D01*
X143500396Y-96231131D01*
X143500388Y-96231140D01*
X143429499Y-96323522D01*
X143429497Y-96323526D01*
X143369998Y-96467170D01*
X143369997Y-96467172D01*
X143349704Y-96621320D01*
X143349704Y-96621323D01*
X143369997Y-96775471D01*
X143369998Y-96775473D01*
X143429497Y-96919117D01*
X143429499Y-96919120D01*
X143494483Y-97003810D01*
X143494759Y-97004524D01*
X143495374Y-97004985D01*
X143507347Y-97037087D01*
X143519677Y-97068980D01*
X143519523Y-97069730D01*
X143519791Y-97070449D01*
X143512509Y-97103922D01*
X143505638Y-97137424D01*
X143505049Y-97138220D01*
X143504940Y-97138722D01*
X143483789Y-97166977D01*
X143322760Y-97328006D01*
X143261440Y-97361490D01*
X143235081Y-97364324D01*
X142259896Y-97364324D01*
X142192857Y-97344639D01*
X142172215Y-97328005D01*
X141642882Y-96798672D01*
X141642873Y-96798664D01*
X141550491Y-96727775D01*
X141550487Y-96727773D01*
X141406843Y-96668274D01*
X141406841Y-96668273D01*
X141252693Y-96647980D01*
X141252691Y-96647980D01*
X141098542Y-96668273D01*
X141098540Y-96668274D01*
X140954896Y-96727773D01*
X140954893Y-96727775D01*
X140862512Y-96798661D01*
X140862505Y-96798667D01*
X140298672Y-97362501D01*
X140298664Y-97362510D01*
X140227775Y-97454892D01*
X140227773Y-97454896D01*
X140168274Y-97598540D01*
X140168273Y-97598542D01*
X140147980Y-97752690D01*
X136515786Y-97752690D01*
X136611592Y-97656884D01*
X136832700Y-97435776D01*
X136832703Y-97435771D01*
X136832708Y-97435767D01*
X136903597Y-97343384D01*
X136963098Y-97199737D01*
X136980119Y-97070449D01*
X136983392Y-97045587D01*
X136983392Y-97045584D01*
X136963098Y-96891436D01*
X136963098Y-96891435D01*
X136903597Y-96747788D01*
X136832709Y-96655405D01*
X136832704Y-96655399D01*
X135844606Y-95667302D01*
X135844597Y-95667294D01*
X135752215Y-95596405D01*
X135752211Y-95596403D01*
X135608567Y-95536904D01*
X135608565Y-95536903D01*
X135454417Y-95516610D01*
X135454415Y-95516610D01*
X135300266Y-95536903D01*
X135300264Y-95536904D01*
X135156620Y-95596403D01*
X135156617Y-95596405D01*
X135064236Y-95667291D01*
X135064229Y-95667297D01*
X134500396Y-96231131D01*
X134500388Y-96231140D01*
X134429499Y-96323522D01*
X134429497Y-96323526D01*
X134369998Y-96467170D01*
X134369997Y-96467172D01*
X134349704Y-96621320D01*
X134349704Y-96621323D01*
X134369997Y-96775471D01*
X134369998Y-96775473D01*
X134429497Y-96919117D01*
X134429499Y-96919120D01*
X134494483Y-97003810D01*
X134494759Y-97004524D01*
X134495374Y-97004985D01*
X134507347Y-97037087D01*
X134519677Y-97068980D01*
X134519523Y-97069730D01*
X134519791Y-97070449D01*
X134512509Y-97103922D01*
X134505638Y-97137424D01*
X134505049Y-97138220D01*
X134504940Y-97138722D01*
X134483789Y-97166977D01*
X134322760Y-97328006D01*
X134261440Y-97361490D01*
X134235081Y-97364324D01*
X133259896Y-97364324D01*
X133192857Y-97344639D01*
X133172215Y-97328005D01*
X132642882Y-96798672D01*
X132642873Y-96798664D01*
X132550491Y-96727775D01*
X132550487Y-96727773D01*
X132406843Y-96668274D01*
X132406841Y-96668273D01*
X132252693Y-96647980D01*
X132252691Y-96647980D01*
X132098542Y-96668273D01*
X132098540Y-96668274D01*
X131954896Y-96727773D01*
X131954893Y-96727775D01*
X131862512Y-96798661D01*
X131862505Y-96798667D01*
X131298672Y-97362501D01*
X131298664Y-97362510D01*
X131227775Y-97454892D01*
X131227773Y-97454896D01*
X131168274Y-97598540D01*
X131168273Y-97598542D01*
X131147980Y-97752690D01*
X127515786Y-97752690D01*
X127611592Y-97656884D01*
X127832700Y-97435776D01*
X127832703Y-97435771D01*
X127832708Y-97435767D01*
X127903597Y-97343384D01*
X127963098Y-97199737D01*
X127980119Y-97070449D01*
X127983392Y-97045587D01*
X127983392Y-97045584D01*
X127963098Y-96891436D01*
X127963098Y-96891435D01*
X127903597Y-96747788D01*
X127832709Y-96655405D01*
X127832704Y-96655399D01*
X126844606Y-95667302D01*
X126844597Y-95667294D01*
X126752215Y-95596405D01*
X126752211Y-95596403D01*
X126608567Y-95536904D01*
X126608565Y-95536903D01*
X126454417Y-95516610D01*
X126454415Y-95516610D01*
X126300266Y-95536903D01*
X126300264Y-95536904D01*
X126156620Y-95596403D01*
X126156617Y-95596405D01*
X126064236Y-95667291D01*
X126064229Y-95667297D01*
X125500396Y-96231131D01*
X125500388Y-96231140D01*
X125429499Y-96323522D01*
X125429497Y-96323526D01*
X125369998Y-96467170D01*
X125369997Y-96467172D01*
X125349704Y-96621320D01*
X125349704Y-96621323D01*
X125369997Y-96775471D01*
X125369998Y-96775473D01*
X125429497Y-96919117D01*
X125429499Y-96919120D01*
X125494483Y-97003810D01*
X125494759Y-97004524D01*
X125495374Y-97004985D01*
X125507347Y-97037087D01*
X125519677Y-97068980D01*
X125519523Y-97069730D01*
X125519791Y-97070449D01*
X125512509Y-97103922D01*
X125505638Y-97137424D01*
X125505049Y-97138220D01*
X125504940Y-97138722D01*
X125483789Y-97166977D01*
X125322760Y-97328006D01*
X125261440Y-97361490D01*
X125235081Y-97364324D01*
X124259896Y-97364324D01*
X124192857Y-97344639D01*
X124172215Y-97328005D01*
X123642882Y-96798672D01*
X123642873Y-96798664D01*
X123550491Y-96727775D01*
X123550487Y-96727773D01*
X123406843Y-96668274D01*
X123406841Y-96668273D01*
X123252693Y-96647980D01*
X123252691Y-96647980D01*
X123098542Y-96668273D01*
X123098540Y-96668274D01*
X122954896Y-96727773D01*
X122954893Y-96727775D01*
X122862512Y-96798661D01*
X122862505Y-96798667D01*
X122298672Y-97362501D01*
X122298664Y-97362510D01*
X122227775Y-97454892D01*
X122227773Y-97454896D01*
X122168274Y-97598540D01*
X122168273Y-97598542D01*
X122147980Y-97752690D01*
X118515786Y-97752690D01*
X118611592Y-97656884D01*
X118832700Y-97435776D01*
X118832703Y-97435771D01*
X118832708Y-97435767D01*
X118903597Y-97343384D01*
X118963098Y-97199737D01*
X118980119Y-97070449D01*
X118983392Y-97045587D01*
X118983392Y-97045584D01*
X118963098Y-96891436D01*
X118963098Y-96891435D01*
X118903597Y-96747788D01*
X118832709Y-96655405D01*
X118832704Y-96655399D01*
X117844606Y-95667302D01*
X117844597Y-95667294D01*
X117752215Y-95596405D01*
X117752211Y-95596403D01*
X117608567Y-95536904D01*
X117608565Y-95536903D01*
X117454417Y-95516610D01*
X117454415Y-95516610D01*
X117300266Y-95536903D01*
X117300264Y-95536904D01*
X117156620Y-95596403D01*
X117156617Y-95596405D01*
X117064236Y-95667291D01*
X117064229Y-95667297D01*
X116500396Y-96231131D01*
X116500388Y-96231140D01*
X116429499Y-96323522D01*
X116429497Y-96323526D01*
X116369998Y-96467170D01*
X116369997Y-96467172D01*
X116349704Y-96621320D01*
X116349704Y-96621323D01*
X116369997Y-96775471D01*
X116369998Y-96775473D01*
X116429497Y-96919117D01*
X116429499Y-96919120D01*
X116494483Y-97003810D01*
X116494759Y-97004524D01*
X116495374Y-97004985D01*
X116507347Y-97037087D01*
X116519677Y-97068980D01*
X116519523Y-97069730D01*
X116519791Y-97070449D01*
X116512509Y-97103922D01*
X116505638Y-97137424D01*
X116505049Y-97138220D01*
X116504940Y-97138722D01*
X116483789Y-97166977D01*
X116322760Y-97328006D01*
X116261440Y-97361490D01*
X116235081Y-97364324D01*
X115259896Y-97364324D01*
X115192857Y-97344639D01*
X115172215Y-97328005D01*
X114642882Y-96798672D01*
X114642873Y-96798664D01*
X114550491Y-96727775D01*
X114550487Y-96727773D01*
X114406843Y-96668274D01*
X114406841Y-96668273D01*
X114252693Y-96647980D01*
X114252691Y-96647980D01*
X114098542Y-96668273D01*
X114098540Y-96668274D01*
X113954896Y-96727773D01*
X113954893Y-96727775D01*
X113862512Y-96798661D01*
X113862505Y-96798667D01*
X113298672Y-97362501D01*
X113298664Y-97362510D01*
X113227775Y-97454892D01*
X113227773Y-97454896D01*
X113168274Y-97598540D01*
X113168273Y-97598542D01*
X113147980Y-97752690D01*
X109515786Y-97752690D01*
X109611592Y-97656884D01*
X109832700Y-97435776D01*
X109832703Y-97435771D01*
X109832708Y-97435767D01*
X109903597Y-97343384D01*
X109963098Y-97199737D01*
X109980119Y-97070449D01*
X109983392Y-97045587D01*
X109983392Y-97045584D01*
X109963098Y-96891436D01*
X109963098Y-96891435D01*
X109903597Y-96747788D01*
X109832709Y-96655405D01*
X109832704Y-96655399D01*
X108844606Y-95667302D01*
X108844597Y-95667294D01*
X108752215Y-95596405D01*
X108752211Y-95596403D01*
X108608567Y-95536904D01*
X108608565Y-95536903D01*
X108475313Y-95519361D01*
X108475312Y-95519361D01*
X108454416Y-95516610D01*
X108433520Y-95519361D01*
X108433519Y-95519361D01*
X108300266Y-95536903D01*
X108300264Y-95536904D01*
X108156620Y-95596403D01*
X108156617Y-95596405D01*
X108064236Y-95667291D01*
X108064229Y-95667297D01*
X107500396Y-96231131D01*
X107500388Y-96231140D01*
X107429499Y-96323522D01*
X107429497Y-96323526D01*
X107369998Y-96467170D01*
X107369997Y-96467172D01*
X107349704Y-96621320D01*
X107349704Y-96621323D01*
X107369997Y-96775471D01*
X107369998Y-96775473D01*
X107429497Y-96919117D01*
X107429499Y-96919120D01*
X107494483Y-97003810D01*
X107519677Y-97068980D01*
X107505638Y-97137424D01*
X107483788Y-97166977D01*
X107151899Y-97498867D01*
X107090578Y-97532351D01*
X107064220Y-97535185D01*
X106259896Y-97535185D01*
X106192857Y-97515500D01*
X106172215Y-97498866D01*
X105642882Y-96969533D01*
X105642873Y-96969525D01*
X105550491Y-96898636D01*
X105550487Y-96898634D01*
X105406843Y-96839135D01*
X105406841Y-96839134D01*
X105252693Y-96818841D01*
X105252691Y-96818841D01*
X105098542Y-96839134D01*
X105098540Y-96839135D01*
X104954896Y-96898634D01*
X104954893Y-96898636D01*
X104862512Y-96969522D01*
X104862505Y-96969528D01*
X104298672Y-97533362D01*
X104298664Y-97533371D01*
X104227775Y-97625753D01*
X104227773Y-97625757D01*
X104168274Y-97769401D01*
X104168273Y-97769403D01*
X104147980Y-97923551D01*
X100515786Y-97923551D01*
X100832708Y-97606628D01*
X100903597Y-97514245D01*
X100963098Y-97370598D01*
X100983392Y-97216447D01*
X100973159Y-97138722D01*
X100963098Y-97062297D01*
X100963098Y-97062296D01*
X100903597Y-96918649D01*
X100850537Y-96849500D01*
X100832710Y-96826267D01*
X100832704Y-96826260D01*
X99844606Y-95838163D01*
X99844597Y-95838155D01*
X99752215Y-95767266D01*
X99752211Y-95767264D01*
X99608567Y-95707765D01*
X99608565Y-95707764D01*
X99454417Y-95687471D01*
X99454415Y-95687471D01*
X99300266Y-95707764D01*
X99300264Y-95707765D01*
X99156620Y-95767264D01*
X99156617Y-95767266D01*
X99064236Y-95838152D01*
X99064229Y-95838158D01*
X98500396Y-96401992D01*
X98500388Y-96402001D01*
X98429499Y-96494383D01*
X98429497Y-96494387D01*
X98369998Y-96638031D01*
X98369997Y-96638033D01*
X98356352Y-96741685D01*
X98328086Y-96805582D01*
X98269761Y-96844053D01*
X98233413Y-96849500D01*
X93985719Y-96849500D01*
X93918680Y-96829815D01*
X93875235Y-96781795D01*
X93855052Y-96742185D01*
X93855051Y-96742184D01*
X93730109Y-96570213D01*
X93616569Y-96456673D01*
X93583084Y-96395350D01*
X93588068Y-96325658D01*
X93629940Y-96269725D01*
X93660915Y-96252810D01*
X93792331Y-96203796D01*
X93907546Y-96117546D01*
X93993796Y-96002331D01*
X94044091Y-95867483D01*
X94050500Y-95807873D01*
X94050500Y-95395361D01*
X94070185Y-95328322D01*
X94122989Y-95282567D01*
X94174500Y-95271361D01*
X101204928Y-95271361D01*
X101271967Y-95291046D01*
X101292609Y-95307680D01*
X101821942Y-95837013D01*
X101821947Y-95837017D01*
X101821951Y-95837021D01*
X101849960Y-95858514D01*
X101914332Y-95907909D01*
X101914334Y-95907910D01*
X102057981Y-95967411D01*
X102135056Y-95977558D01*
X102212131Y-95987705D01*
X102212132Y-95987705D01*
X102212133Y-95987705D01*
X102263515Y-95980940D01*
X102366283Y-95967411D01*
X102509930Y-95907910D01*
X102602313Y-95837022D01*
X102842932Y-95596403D01*
X103131655Y-95307680D01*
X103192978Y-95274195D01*
X103219336Y-95271361D01*
X110375790Y-95271361D01*
X110442829Y-95291046D01*
X110463471Y-95307680D01*
X110821951Y-95666160D01*
X110821954Y-95666162D01*
X110821955Y-95666163D01*
X110914332Y-95737048D01*
X110914334Y-95737049D01*
X111057981Y-95796550D01*
X111135056Y-95806697D01*
X111212131Y-95816844D01*
X111212132Y-95816844D01*
X111212133Y-95816844D01*
X111263515Y-95810079D01*
X111366283Y-95796550D01*
X111509930Y-95737049D01*
X111602313Y-95666161D01*
X111873113Y-95395361D01*
X112131655Y-95136819D01*
X112192978Y-95103334D01*
X112219336Y-95100500D01*
X119204928Y-95100500D01*
X119271967Y-95120185D01*
X119292609Y-95136819D01*
X119821942Y-95666152D01*
X119821947Y-95666156D01*
X119821951Y-95666160D01*
X119849724Y-95687471D01*
X119914332Y-95737048D01*
X119914334Y-95737049D01*
X120057981Y-95796550D01*
X120135056Y-95806697D01*
X120212131Y-95816844D01*
X120212132Y-95816844D01*
X120212133Y-95816844D01*
X120263515Y-95810079D01*
X120366283Y-95796550D01*
X120509930Y-95737049D01*
X120602313Y-95666161D01*
X120873113Y-95395361D01*
X121131655Y-95136819D01*
X121192978Y-95103334D01*
X121219336Y-95100500D01*
X128204928Y-95100500D01*
X128271967Y-95120185D01*
X128292609Y-95136819D01*
X128821942Y-95666152D01*
X128821947Y-95666156D01*
X128821951Y-95666160D01*
X128849724Y-95687471D01*
X128914332Y-95737048D01*
X128914334Y-95737049D01*
X129057981Y-95796550D01*
X129135056Y-95806697D01*
X129212131Y-95816844D01*
X129212132Y-95816844D01*
X129212133Y-95816844D01*
X129263515Y-95810079D01*
X129366283Y-95796550D01*
X129509930Y-95737049D01*
X129602313Y-95666161D01*
X129873113Y-95395361D01*
X130131655Y-95136819D01*
X130192978Y-95103334D01*
X130219336Y-95100500D01*
X137204928Y-95100500D01*
X137271967Y-95120185D01*
X137292609Y-95136819D01*
X137821942Y-95666152D01*
X137821947Y-95666156D01*
X137821951Y-95666160D01*
X137849724Y-95687471D01*
X137914332Y-95737048D01*
X137914334Y-95737049D01*
X138057981Y-95796550D01*
X138135056Y-95806697D01*
X138212131Y-95816844D01*
X138212132Y-95816844D01*
X138212133Y-95816844D01*
X138263515Y-95810079D01*
X138366283Y-95796550D01*
X138509930Y-95737049D01*
X138602313Y-95666161D01*
X138873113Y-95395361D01*
X139131655Y-95136819D01*
X139192978Y-95103334D01*
X139219336Y-95100500D01*
X146204928Y-95100500D01*
X146271967Y-95120185D01*
X146292609Y-95136819D01*
X146821942Y-95666152D01*
X146821947Y-95666156D01*
X146821951Y-95666160D01*
X146849724Y-95687471D01*
X146914332Y-95737048D01*
X146914334Y-95737049D01*
X147057981Y-95796550D01*
X147135056Y-95806697D01*
X147212131Y-95816844D01*
X147212132Y-95816844D01*
X147212133Y-95816844D01*
X147263515Y-95810079D01*
X147366283Y-95796550D01*
X147509930Y-95737049D01*
X147602313Y-95666161D01*
X147873113Y-95395361D01*
X148131655Y-95136819D01*
X148192978Y-95103334D01*
X148219336Y-95100500D01*
X155204928Y-95100500D01*
X155271967Y-95120185D01*
X155292609Y-95136819D01*
X155821942Y-95666152D01*
X155821947Y-95666156D01*
X155821951Y-95666160D01*
X155849724Y-95687471D01*
X155914332Y-95737048D01*
X155914334Y-95737049D01*
X156057981Y-95796550D01*
X156135056Y-95806697D01*
X156212131Y-95816844D01*
X156212132Y-95816844D01*
X156212133Y-95816844D01*
X156263515Y-95810079D01*
X156366283Y-95796550D01*
X156509930Y-95737049D01*
X156602313Y-95666161D01*
X156873113Y-95395361D01*
X157131655Y-95136819D01*
X157192978Y-95103334D01*
X157219336Y-95100500D01*
X164204928Y-95100500D01*
X164271967Y-95120185D01*
X164292609Y-95136819D01*
X164821942Y-95666152D01*
X164821947Y-95666156D01*
X164821951Y-95666160D01*
X164849724Y-95687471D01*
X164914332Y-95737048D01*
X164914334Y-95737049D01*
X165057981Y-95796550D01*
X165135056Y-95806697D01*
X165212131Y-95816844D01*
X165212132Y-95816844D01*
X165212133Y-95816844D01*
X165263515Y-95810079D01*
X165366283Y-95796550D01*
X165509930Y-95737049D01*
X165602313Y-95666161D01*
X165873113Y-95395361D01*
X166131655Y-95136819D01*
X166192978Y-95103334D01*
X166219336Y-95100500D01*
X173204928Y-95100500D01*
X173271967Y-95120185D01*
X173292609Y-95136819D01*
X173821942Y-95666152D01*
X173821947Y-95666156D01*
X173821951Y-95666160D01*
X173849724Y-95687471D01*
X173914332Y-95737048D01*
X173914334Y-95737049D01*
X174057981Y-95796550D01*
X174135056Y-95806697D01*
X174212131Y-95816844D01*
X174212132Y-95816844D01*
X174212133Y-95816844D01*
X174263515Y-95810079D01*
X174366283Y-95796550D01*
X174509930Y-95737049D01*
X174602313Y-95666161D01*
X174873113Y-95395361D01*
X175131655Y-95136819D01*
X175192978Y-95103334D01*
X175219336Y-95100500D01*
X182204928Y-95100500D01*
X182271967Y-95120185D01*
X182292609Y-95136819D01*
X182821942Y-95666152D01*
X182821947Y-95666156D01*
X182821951Y-95666160D01*
X182849724Y-95687471D01*
X182914332Y-95737048D01*
X182914334Y-95737049D01*
X183057981Y-95796550D01*
X183135056Y-95806697D01*
X183212131Y-95816844D01*
X183212132Y-95816844D01*
X183212133Y-95816844D01*
X183263515Y-95810079D01*
X183366283Y-95796550D01*
X183509930Y-95737049D01*
X183602313Y-95666161D01*
X184166160Y-95102313D01*
X184237049Y-95009930D01*
X184296550Y-94866283D01*
X184316844Y-94712132D01*
X184296550Y-94557981D01*
X184237049Y-94414334D01*
X184166161Y-94321951D01*
X184166156Y-94321945D01*
X183178058Y-93333848D01*
X183178049Y-93333840D01*
X183085667Y-93262951D01*
X183085663Y-93262949D01*
X182942019Y-93203450D01*
X182942017Y-93203449D01*
X182787869Y-93183156D01*
X182787867Y-93183156D01*
X182633718Y-93203449D01*
X182633716Y-93203450D01*
X182490072Y-93262949D01*
X182490069Y-93262951D01*
X182397688Y-93333837D01*
X182397681Y-93333843D01*
X181868345Y-93863181D01*
X181807022Y-93896666D01*
X181780664Y-93899500D01*
X174795072Y-93899500D01*
X174728033Y-93879815D01*
X174707391Y-93863181D01*
X174178058Y-93333848D01*
X174178049Y-93333840D01*
X174085667Y-93262951D01*
X174085663Y-93262949D01*
X173942019Y-93203450D01*
X173942017Y-93203449D01*
X173787869Y-93183156D01*
X173787867Y-93183156D01*
X173633718Y-93203449D01*
X173633716Y-93203450D01*
X173490072Y-93262949D01*
X173490069Y-93262951D01*
X173397688Y-93333837D01*
X173397681Y-93333843D01*
X172868345Y-93863181D01*
X172807022Y-93896666D01*
X172780664Y-93899500D01*
X165795072Y-93899500D01*
X165728033Y-93879815D01*
X165707391Y-93863181D01*
X165178058Y-93333848D01*
X165178049Y-93333840D01*
X165085667Y-93262951D01*
X165085663Y-93262949D01*
X164942019Y-93203450D01*
X164942017Y-93203449D01*
X164787869Y-93183156D01*
X164787867Y-93183156D01*
X164633718Y-93203449D01*
X164633716Y-93203450D01*
X164490072Y-93262949D01*
X164490069Y-93262951D01*
X164397688Y-93333837D01*
X164397681Y-93333843D01*
X163868345Y-93863181D01*
X163807022Y-93896666D01*
X163780664Y-93899500D01*
X156795072Y-93899500D01*
X156728033Y-93879815D01*
X156707391Y-93863181D01*
X156178058Y-93333848D01*
X156178049Y-93333840D01*
X156085667Y-93262951D01*
X156085663Y-93262949D01*
X155942019Y-93203450D01*
X155942017Y-93203449D01*
X155787869Y-93183156D01*
X155787867Y-93183156D01*
X155633718Y-93203449D01*
X155633716Y-93203450D01*
X155490072Y-93262949D01*
X155490069Y-93262951D01*
X155397688Y-93333837D01*
X155397681Y-93333843D01*
X154868345Y-93863181D01*
X154807022Y-93896666D01*
X154780664Y-93899500D01*
X147795072Y-93899500D01*
X147728033Y-93879815D01*
X147707391Y-93863181D01*
X147178058Y-93333848D01*
X147178049Y-93333840D01*
X147085667Y-93262951D01*
X147085663Y-93262949D01*
X146942019Y-93203450D01*
X146942017Y-93203449D01*
X146787869Y-93183156D01*
X146787867Y-93183156D01*
X146633718Y-93203449D01*
X146633716Y-93203450D01*
X146490072Y-93262949D01*
X146490069Y-93262951D01*
X146397688Y-93333837D01*
X146397681Y-93333843D01*
X145868345Y-93863181D01*
X145807022Y-93896666D01*
X145780664Y-93899500D01*
X138795072Y-93899500D01*
X138728033Y-93879815D01*
X138707391Y-93863181D01*
X138178058Y-93333848D01*
X138178049Y-93333840D01*
X138085667Y-93262951D01*
X138085663Y-93262949D01*
X137942019Y-93203450D01*
X137942017Y-93203449D01*
X137787869Y-93183156D01*
X137787867Y-93183156D01*
X137633718Y-93203449D01*
X137633716Y-93203450D01*
X137490072Y-93262949D01*
X137490069Y-93262951D01*
X137397688Y-93333837D01*
X137397681Y-93333843D01*
X136868345Y-93863181D01*
X136807022Y-93896666D01*
X136780664Y-93899500D01*
X129795072Y-93899500D01*
X129728033Y-93879815D01*
X129707391Y-93863181D01*
X129178058Y-93333848D01*
X129178049Y-93333840D01*
X129085667Y-93262951D01*
X129085663Y-93262949D01*
X128942019Y-93203450D01*
X128942017Y-93203449D01*
X128787869Y-93183156D01*
X128787867Y-93183156D01*
X128633718Y-93203449D01*
X128633716Y-93203450D01*
X128490072Y-93262949D01*
X128490069Y-93262951D01*
X128397688Y-93333837D01*
X128397681Y-93333843D01*
X127868345Y-93863181D01*
X127807022Y-93896666D01*
X127780664Y-93899500D01*
X120795072Y-93899500D01*
X120728033Y-93879815D01*
X120707391Y-93863181D01*
X120178058Y-93333848D01*
X120178049Y-93333840D01*
X120085667Y-93262951D01*
X120085663Y-93262949D01*
X119942019Y-93203450D01*
X119942017Y-93203449D01*
X119787869Y-93183156D01*
X119787867Y-93183156D01*
X119633718Y-93203449D01*
X119633716Y-93203450D01*
X119490072Y-93262949D01*
X119490069Y-93262951D01*
X119397688Y-93333837D01*
X119397681Y-93333843D01*
X118868345Y-93863181D01*
X118807022Y-93896666D01*
X118780664Y-93899500D01*
X111795072Y-93899500D01*
X111728033Y-93879815D01*
X111707391Y-93863181D01*
X111178058Y-93333848D01*
X111178049Y-93333840D01*
X111085667Y-93262951D01*
X111085663Y-93262949D01*
X110942019Y-93203450D01*
X110942017Y-93203449D01*
X110787869Y-93183156D01*
X110787867Y-93183156D01*
X110633718Y-93203449D01*
X110633716Y-93203450D01*
X110490072Y-93262949D01*
X110490069Y-93262951D01*
X110397688Y-93333837D01*
X110397681Y-93333843D01*
X109833848Y-93897677D01*
X109833840Y-93897686D01*
X109762951Y-93990068D01*
X109762950Y-93990070D01*
X109761401Y-93993812D01*
X109759247Y-93996484D01*
X109758885Y-93997112D01*
X109758787Y-93997055D01*
X109717560Y-94048216D01*
X109651266Y-94070282D01*
X109646839Y-94070361D01*
X102795072Y-94070361D01*
X102728033Y-94050676D01*
X102707391Y-94034042D01*
X102178058Y-93504709D01*
X102178049Y-93504701D01*
X102085667Y-93433812D01*
X102085663Y-93433810D01*
X101942019Y-93374311D01*
X101942017Y-93374310D01*
X101787869Y-93354017D01*
X101787867Y-93354017D01*
X101633718Y-93374310D01*
X101633716Y-93374311D01*
X101490072Y-93433810D01*
X101490069Y-93433812D01*
X101397688Y-93504698D01*
X101397681Y-93504704D01*
X100868345Y-94034042D01*
X100807022Y-94067527D01*
X100780664Y-94070361D01*
X94168144Y-94070361D01*
X94101105Y-94050676D01*
X94055350Y-93997872D01*
X94044854Y-93959614D01*
X94044091Y-93952516D01*
X93993797Y-93817671D01*
X93993793Y-93817664D01*
X93907547Y-93702455D01*
X93907544Y-93702452D01*
X93792335Y-93616206D01*
X93792328Y-93616202D01*
X93657482Y-93565908D01*
X93657483Y-93565908D01*
X93597883Y-93559501D01*
X93597881Y-93559500D01*
X93597873Y-93559500D01*
X93597864Y-93559500D01*
X91802129Y-93559500D01*
X91802123Y-93559501D01*
X91742516Y-93565908D01*
X91607671Y-93616202D01*
X91607664Y-93616206D01*
X91492455Y-93702452D01*
X91492452Y-93702455D01*
X91406206Y-93817664D01*
X91406202Y-93817671D01*
X91355908Y-93952517D01*
X91349501Y-94012116D01*
X91349500Y-94012135D01*
X89500500Y-94012135D01*
X89500500Y-88624500D01*
X89520185Y-88557461D01*
X89572989Y-88511706D01*
X89624500Y-88500500D01*
X190875500Y-88500500D01*
X190942539Y-88520185D01*
G37*
%TD.AperFunction*%
M02*
