%TF.GenerationSoftware,KiCad,Pcbnew,9.0.6*%
%TF.CreationDate,2025-12-31T15:00:17+05:30*%
%TF.ProjectId,venkat-pcb,76656e6b-6174-42d7-9063-622e6b696361,rev?*%
%TF.SameCoordinates,Original*%
%TF.FileFunction,Paste,Top*%
%TF.FilePolarity,Positive*%
%FSLAX46Y46*%
G04 Gerber Fmt 4.6, Leading zero omitted, Abs format (unit mm)*
G04 Created by KiCad (PCBNEW 9.0.6) date 2025-12-31 15:00:17*
%MOMM*%
%LPD*%
G01*
G04 APERTURE LIST*
G04 Aperture macros list*
%AMRoundRect*
0 Rectangle with rounded corners*
0 $1 Rounding radius*
0 $2 $3 $4 $5 $6 $7 $8 $9 X,Y pos of 4 corners*
0 Add a 4 corners polygon primitive as box body*
4,1,4,$2,$3,$4,$5,$6,$7,$8,$9,$2,$3,0*
0 Add four circle primitives for the rounded corners*
1,1,$1+$1,$2,$3*
1,1,$1+$1,$4,$5*
1,1,$1+$1,$6,$7*
1,1,$1+$1,$8,$9*
0 Add four rect primitives between the rounded corners*
20,1,$1+$1,$2,$3,$4,$5,0*
20,1,$1+$1,$4,$5,$6,$7,0*
20,1,$1+$1,$6,$7,$8,$9,0*
20,1,$1+$1,$8,$9,$2,$3,0*%
G04 Aperture macros list end*
%ADD10RoundRect,0.090000X0.721249X-0.212132X-0.212132X0.721249X-0.721249X0.212132X0.212132X-0.721249X0*%
G04 APERTURE END LIST*
D10*
%TO.C,D10*%
X184131372Y-100298278D03*
X186464824Y-97964824D03*
X183000000Y-94500000D03*
X180666548Y-96833454D03*
%TD*%
%TO.C,D8*%
X166131372Y-100298278D03*
X168464824Y-97964824D03*
X165000000Y-94500000D03*
X162666548Y-96833454D03*
%TD*%
%TO.C,D1*%
X103131372Y-100469139D03*
X105464824Y-98135685D03*
X102000000Y-94670861D03*
X99666548Y-97004315D03*
%TD*%
%TO.C,D6*%
X148131372Y-100298278D03*
X150464824Y-97964824D03*
X147000000Y-94500000D03*
X144666548Y-96833454D03*
%TD*%
%TO.C,D4*%
X130131372Y-100298278D03*
X132464824Y-97964824D03*
X129000000Y-94500000D03*
X126666548Y-96833454D03*
%TD*%
%TO.C,D7*%
X157131372Y-100298278D03*
X159464824Y-97964824D03*
X156000000Y-94500000D03*
X153666548Y-96833454D03*
%TD*%
%TO.C,D2*%
X112131372Y-100298278D03*
X114464824Y-97964824D03*
X111000000Y-94500000D03*
X108666548Y-96833454D03*
%TD*%
%TO.C,D9*%
X175131372Y-100298278D03*
X177464824Y-97964824D03*
X174000000Y-94500000D03*
X171666548Y-96833454D03*
%TD*%
%TO.C,D5*%
X139131372Y-100298278D03*
X141464824Y-97964824D03*
X138000000Y-94500000D03*
X135666548Y-96833454D03*
%TD*%
%TO.C,D3*%
X121131372Y-100298278D03*
X123464824Y-97964824D03*
X120000000Y-94500000D03*
X117666548Y-96833454D03*
%TD*%
M02*
